<?xml version="1.0" standalone="no"?> <!DOCTYPE svg PUBLIC "-//W3C//DTD SVG 1.0//EN" "http://www.w3.org/TR/2001/REC-SVG-20010904/DTD/svg10.dtd" > <svg xmlns="http://www.w3.org/2000/svg" width="100%" height="100%">
<defs >
<font id="helveticaneueltstdth" horiz-adv-x="494" ><font-face
    font-family="HelveticaNeueLT Std Thin"
    units-per-em="1000"
    panose-1="2 11 4 3 2 2 2 2 2 4"
    ascent="714"
    descent="-286"
    alphabetic="0" />
<missing-glyph horiz-adv-x="500" d="M0 0V700H500V0H0ZM250 395L420 650H80L250 395ZM280 350L450 95V605L280 350ZM80 50H420L250 305L80 50ZM50 605V95L220 350L50 605Z" />
<glyph unicode=" " glyph-name="space" horiz-adv-x="278" />
<glyph unicode="!" glyph-name="exclam" horiz-adv-x="259" d="M106 714H154V473L142 183H118L106 473V714ZM155 0H104V103H155V0Z" />
<glyph unicode="&quot;" glyph-name="quotedbl" horiz-adv-x="315" d="M80 485V714H118V485H80ZM197 485V714H235V485H197Z" />
<glyph unicode="#" glyph-name="numbersign" horiz-adv-x="556" d="M414 690H447L416 470H526V437H411L387 264H498V231H382L350 0H317L349 231H180L148 0H115L147 231H30V264H152L176 437H58V470H181L212 690H245L214 470H383L414 690ZM209 437L185 264H354L378
437H209Z" />
<glyph unicode="$" glyph-name="dollar" horiz-adv-x="556" d="M290 347V21Q382 21 441 61T501 183Q501 240 465 276T351 332L290 347ZM258 393V693Q162 689 117 649T72 541Q72 476 109 447T217 402L258 393ZM258 -105V-17Q140 -7 76 52T12 235H50Q50 140 103
84T258 21V354L211 365Q173 374 147 384T92 414T49 465T34 541Q34 559 36 577T52 624T87 674T154 712T258 731V780H290V731Q515 726 522 511H484Q478 606 429 649T290 694V384L368 365Q539 324 539 183Q539 113 502 67T411 3T290 -17V-105H258Z" />
<glyph unicode="%" glyph-name="percent" horiz-adv-x="778" d="M646 -12T572 -12T452 39T406 165Q406 242 451 293T573 344Q650 344 694 294T738 165Q738 91 692 40ZM571 21Q629 21 664 64T700 165Q700 227 666 269T572 311T478 269T444 165Q444 107 479 64T571
21ZM280 346T206 346T86 397T40 523Q40 600 85 651T207 702Q284 702 328 652T372 523Q372 449 326 398ZM205 379Q263 379 298 422T334 523Q334 585 300 627T206 669T112 627T78 523Q78 465 113 422T205 379ZM138 -24L603 714H643L178 -24H138Z" />
<glyph unicode="&amp;" glyph-name="ampersand" horiz-adv-x="593" d="M262 412Q293 432 308 443T348 477T383 525T394 579Q394 618 360 643T282 669T205 644T170 579Q170 548 184 520T227 457T262 412ZM433 137L249 366Q244 363 218 346T183 323T153 301T123
274T102 245T86 210T81 170Q81 103 133 62T255 21Q289 21 319 32T370 60T405 93T426 123T433 137ZM545 0L458 106Q425 51 372 20T255 -12Q162 -12 103 35T43 170Q43 189 46 206T58 240T72 268T94 295T116 317T145 339T172 357T202 376T229 394Q225 399 211 417T190
442T173 466T156 492T144 518T135 548T132 579Q132 632 178 667T282 702Q344 702 388 669T432 579Q432 558 428 540T414 504T397 476T371 450T345 428T314 405T284 384L454 175Q478 238 478 294H516Q511 215 480 143L596 0H545Z" />
<glyph unicode="&apos;" glyph-name="quotesingle" horiz-adv-x="204" d="M83 485V714H121V485H83Z" />
<glyph unicode="(" glyph-name="parenleft" horiz-adv-x="241" d="M228 -184H194Q65 28 65 266Q65 509 196 731H231Q103 514 103 266Q103 21 228 -184Z" />
<glyph unicode=")" glyph-name="parenright" horiz-adv-x="241" d="M13 731H47Q176 519 176 281Q176 38 45 -184H10Q138 33 138 281Q138 526 13 731Z" />
<glyph unicode="*" glyph-name="asterisk" horiz-adv-x="352" d="M161 714H190V584L312 625L322 597L199 556L275 454L253 434L176 540L96 434L72 454L153 556L29 597L38 625L161 584V714Z" />
<glyph unicode="+" glyph-name="plus" horiz-adv-x="600" d="M281 271V504H319V271H552V233H319V0H281V233H48V271H281Z" />
<glyph unicode="," glyph-name="comma" horiz-adv-x="278" d="M100 -126V-93Q134 -78 134 0H113V103H164V0Q164 -102 100 -126Z" />
<glyph unicode="-" glyph-name="hyphen" horiz-adv-x="352" d="M283 253H69V291H283V253Z" />
<glyph unicode="." glyph-name="period" horiz-adv-x="278" d="M164 0H113V103H164V0Z" />
<glyph unicode="/" glyph-name="slash" horiz-adv-x="333" d="M28 -17H-13L305 731H346L28 -17Z" />
<glyph unicode="0" glyph-name="zero" horiz-adv-x="556" d="M335 -12T278 -12T176 9T104 65T59 148T35 244T28 345T34 446T59 542T104 624T176 680T278 702T380 681T452 625T497 542T521 446T528 345T522 244T497 148T452 66T380 10ZM228 21T278 21T366 41T427
94T465 171T485 257T490 345T485 432T465 518T428 595T367 648T278 669T190 649T129 596T91 519T71 433T66 345T71 258T91 172T128 95T189 42Z" />
<glyph unicode="1" glyph-name="one" horiz-adv-x="556" d="M331 690V0H293V616Q221 539 108 528V561Q232 580 297 690H331Z" />
<glyph unicode="2" glyph-name="two" horiz-adv-x="556" d="M94 38H506V0H46Q49 46 66 85T118 158T181 213T257 267Q294 292 308 301T352 334T396 373T426 412T450 461T457 514Q457 582 407 625T287 669Q196 669 149 610T101 457H63Q75 702 281 702Q374 702 434
653T495 513Q495 470 480 432T434 360T374 303T301 250Q191 177 159 147Q98 92 94 38Z" />
<glyph unicode="3" glyph-name="three" horiz-adv-x="556" d="M36 228H74Q70 132 124 77T275 21Q356 21 414 66T473 191Q473 238 453 272T399 323T326 346T241 350V383Q282 381 318 387T386 408T438 454T457 528Q457 596 402 632T275 669Q188 669 142 616T91 472H53Q54
575 113 638T275 702Q367 702 431 658T495 528Q495 466 458 422T360 370V368Q429 360 470 311T511 191Q511 93 444 41T275 -12Q159 -12 95 51T36 228Z" />
<glyph unicode="4" glyph-name="four" horiz-adv-x="556" d="M365 690H403V209H519V176H403V0H365V176H29V214L365 690ZM365 209V638H363L67 209H365Z" />
<glyph unicode="5" glyph-name="five" horiz-adv-x="556" d="M58 333L130 690H479V657H160L101 382L103 380Q163 463 274 463Q377 463 442 397T508 228Q508 124 443 56T274 -12T101 49T37 211H75Q74 127 131 74T274 21Q360 21 415 81T470 228Q470 313 414 371T274
430Q164 430 97 333H58Z" />
<glyph unicode="6" glyph-name="six" horiz-adv-x="556" d="M206 21T288 21T425 79T481 220T426 363T288 423Q204 423 149 364T93 220T149 78ZM507 520H469Q458 587 411 628T296 669Q250 669 214 653T156 606T117 541T94 463T83 385T80 310L82 308Q104 374 161
415T288 456Q389 456 454 389T519 220Q519 120 454 54T288 -12Q218 -12 169 14T93 87T54 189T42 311Q42 367 47 417T70 522T114 614T188 677T296 702Q383 702 440 654T507 520Z" />
<glyph unicode="7" glyph-name="seven" horiz-adv-x="556" d="M56 657V690H501V652Q451 597 419 557T347 455T282 331T235 185T204 0H160Q166 82 181 152T227 305T318 476T463 657H56Z" />
<glyph unicode="8" glyph-name="eight" horiz-adv-x="556" d="M479 198Q479 279 423 319T278 359T134 319T77 198Q77 111 134 66T278 21T421 66T479 198ZM65 529Q65 619 126 660T278 702T430 661T491 529Q491 470 459 430T364 378V376Q434 368 475 320T517 198Q517
95 450 42T278 -12T106 41T39 198Q39 272 80 320T192 376V378Q130 390 98 430T65 529ZM453 529Q453 602 404 635T278 669T153 636T103 529Q103 460 153 426T278 392T402 426T453 529Z" />
<glyph unicode="9" glyph-name="nine" horiz-adv-x="556" d="M279 267Q363 267 418 326T474 470Q474 553 418 611T279 669T140 611T84 470Q84 387 140 327T279 267ZM55 170H93Q104 103 151 62T266 21Q312 21 348 38T406 85T445 150T468 227T479 303T482 372L480
374Q457 312 406 273T279 234Q176 234 111 300T46 470Q46 572 111 637T279 702Q520 702 520 379Q520 323 515 273T492 168T448 76T374 13T266 -12Q179 -12 122 36T55 170Z" />
<glyph unicode=":" glyph-name="colon" horiz-adv-x="278" d="M113 514H164V411H113V514ZM164 0H113V103H164V0Z" />
<glyph unicode=";" glyph-name="semicolon" horiz-adv-x="278" d="M100 -126V-93Q134 -78 134 0H113V103H164V0Q164 -102 100 -126ZM113 514H164V411H113V514Z" />
<glyph unicode="&lt;" glyph-name="less" horiz-adv-x="600" d="M554 514V472L79 254L554 34V-8L46 228V280L554 514Z" />
<glyph unicode="=" glyph-name="equal" horiz-adv-x="600" d="M552 369V331H48V369H552ZM552 175V137H48V175H552Z" />
<glyph unicode="&gt;" glyph-name="greater" horiz-adv-x="600" d="M46 -8V34L521 252L46 472V514L554 278V226L46 -8Z" />
<glyph unicode="?" glyph-name="question" horiz-adv-x="519" d="M81 493H43Q43 602 100 666T265 731Q350 731 405 685T461 552Q461 512 446 478T418 429T372 382Q349 362 337 350T308 312T282 255T274 181H236Q236 254 258 299T324 386Q355 415 373 435T407 487T423
552Q423 622 377 657T262 693Q175 693 128 638T81 493ZM231 0V103H282V0H231Z" />
<glyph unicode="@" glyph-name="at" horiz-adv-x="800" d="M425 547Q346 547 290 461T233 287Q233 232 262 199T336 165Q364 165 395 187T452 244Q480 283 498 336T517 429Q517 447 514 463T503 501T474 534T425 547ZM609 560L513 264Q497 216 497 204Q497 189
508 180T536 170Q603 170 659 253T716 423Q716 543 625 620T417 698Q280 698 182 596T84 353Q84 210 186 113T419 16Q501 16 575 57T694 168H738Q692 83 605 33T419 -17Q260 -17 153 92T46 360Q46 513 155 622T415 731Q558 731 656 643T754 420Q754 310 680 221T525
132Q497 132 479 150T459 203H457Q408 132 323 132Q267 132 231 176T195 282Q195 392 263 486T431 580Q477 580 507 554T543 489H545L568 560H609Z" />
<glyph unicode="A" glyph-name="A" horiz-adv-x="593" d="M275 714H323L605 0H558L468 229H126L35 0H-12L275 714ZM140 267H454L301 671H299L140 267Z" />
<glyph unicode="B" glyph-name="B" horiz-adv-x="630" d="M107 352V38H349Q445 38 499 80T554 200Q554 257 521 293T445 340T349 352H107ZM63 0V714H349Q467 714 520 661T574 529Q574 471 536 428T435 377L437 375Q444 376 461 372T502 356T547 325T583 274T598
200Q598 104 531 52T349 0H63ZM107 676V390H349Q436 390 483 430T530 537Q530 609 479 642T349 676H107Z" />
<glyph unicode="C" glyph-name="C" horiz-adv-x="704" d="M663 501H619Q605 589 537 641T376 693Q240 693 160 597T80 357T160 118T376 21Q478 21 551 98T631 278H675Q663 150 579 67T376 -17Q220 -17 128 89T36 357T128 625T376 731Q447 731 502 708T586 654T634
586T657 530T663 501Z" />
<glyph unicode="D" glyph-name="D" horiz-adv-x="667" d="M107 676V38H299Q341 38 379 47T456 80T521 138T566 230T583 358Q583 441 562 502T511 596T438 648T362 671T290 676H107ZM63 0V714H297Q389 714 455 685T558 603T610 491T627 358Q627 198 543 99T295 0H63Z" />
<glyph unicode="E" glyph-name="E" horiz-adv-x="560" d="M107 38H548V0H63V714H543V676H107V390H517V352H107V38Z" />
<glyph unicode="F" glyph-name="F" horiz-adv-x="514" d="M471 352H107V0H63V714H511V676H107V390H471V352Z" />
<glyph unicode="G" glyph-name="G" horiz-adv-x="741" d="M382 350H683V0H645V152H643Q617 75 543 29T373 -17Q216 -17 127 88T37 353Q37 512 128 621T374 731Q487 731 570 667T671 493H629Q604 587 538 640T375 693Q237 693 159 594T81 353Q81 209 157 115T375
21Q502 21 576 101T645 312H382V350Z" />
<glyph unicode="H" glyph-name="H" horiz-adv-x="670" d="M563 352H107V0H63V714H107V390H563V714H607V0H563V352Z" />
<glyph unicode="I" glyph-name="I" horiz-adv-x="170" d="M63 0V714H107V0H63Z" />
<glyph unicode="J" glyph-name="J" horiz-adv-x="481" d="M20 227H64Q61 183 65 150T84 85T132 38T217 21Q262 21 293 34T340 63T364 112T373 165T374 224Q374 233 374 237V714H418V222Q418 195 418 182T414 139T404 92T383 52T348 15T296 -7T222 -17Q167 -17
128 -1T68 37T36 95T23 159T20 227Z" />
<glyph unicode="K" glyph-name="K" horiz-adv-x="613" d="M63 0V714H107V303L556 714H613L287 417L633 0H578L255 387L107 252V0H63Z" />
<glyph unicode="L" glyph-name="L" horiz-adv-x="500" d="M63 0V714H107V38H512V0H63Z" />
<glyph unicode="M" glyph-name="M" horiz-adv-x="809" d="M63 0V714H126L405 49H407L683 714H746V0H702V660H700L428 0H384L109 660H107V0H63Z" />
<glyph unicode="N" glyph-name="N" horiz-adv-x="678" d="M63 0V714H118L569 59H571V714H615V0H563L109 660H107V0H63Z" />
<glyph unicode="O" glyph-name="O" horiz-adv-x="741" d="M710 518T710 357T619 90T371 -17T123 89T31 357T123 625T371 731T618 625ZM75 500T75 357T155 118T371 21Q506 21 586 117T666 357T586 596T371 693Q235 693 155 597Z" />
<glyph unicode="P" glyph-name="P" horiz-adv-x="591" d="M107 676V356H358Q447 356 489 403T531 515Q531 539 525 563T502 614T450 659T364 676H107ZM63 0V714H367Q395 714 420 710T475 693T525 659T561 600T575 514Q575 420 517 369T351 318H107V0H63Z" />
<glyph unicode="Q" glyph-name="Q" horiz-adv-x="741" d="M453 182L568 99Q666 194 666 357Q666 500 586 596T371 693Q235 693 155 597T75 357T155 118T371 21Q468 21 538 74L430 151L453 182ZM691 -37L573 48Q489 -17 371 -17Q215 -17 123 89T31 357T123 625T371
731T618 625T710 357Q710 176 603 74L714 -6L691 -37Z" />
<glyph unicode="R" glyph-name="R" horiz-adv-x="630" d="M107 363H361Q444 363 493 403T543 527Q543 603 492 639T361 676H107V363ZM63 0V714H361Q464 714 525 671T587 530Q587 458 546 409T434 347V345Q507 337 537 297T573 192Q575 169 575 122T580 46T597
0H548Q536 22 533 58T531 128T529 200Q521 259 485 292T361 325H107V0H63Z" />
<glyph unicode="S" glyph-name="S" horiz-adv-x="630" d="M573 510H529Q525 599 464 646T300 693Q267 693 235 686T173 662T123 614T104 541Q104 509 118 485T147 446T202 419T259 401T329 386Q341 383 347 382Q392 373 420 366T484 343T541 308T576 257T591 184Q591
131 568 91T506 28T426 -6T340 -17Q204 -17 121 44T39 236H83Q77 126 150 74T340 21Q388 21 432 35T512 87T547 184Q547 218 534 244T500 286T447 314T385 334T314 349Q307 350 303 351Q265 359 242 364T187 380T136 404T97 436T69 481T60 541Q60 636 132 683T300
731Q419 731 493 677T573 510Z" />
<glyph unicode="T" glyph-name="T" horiz-adv-x="519" d="M237 676H-14V714H533V676H281V0H237V676Z" />
<glyph unicode="U" glyph-name="U" horiz-adv-x="672" d="M63 714H107V286Q107 254 110 225T126 157T162 89T228 41T331 21Q456 21 510 89T565 286V714H609V286Q609 -17 331 -17Q63 -17 63 286V714Z" />
<glyph unicode="V" glyph-name="V" horiz-adv-x="556" d="M32 714L277 38H279L526 714H570L303 0H252L-14 714H32Z" />
<glyph unicode="W" glyph-name="W" horiz-adv-x="889" d="M200 0L-6 714H39L225 47H227L416 714H471L663 47H665L848 714H895L690 0H640L444 676H442L249 0H200Z" />
<glyph unicode="X" glyph-name="X" horiz-adv-x="556" d="M251 367L1 714H52L278 400L509 714H559L307 367L573 0H520L278 334L35 0H-17L251 367Z" />
<glyph unicode="Y" glyph-name="Y" horiz-adv-x="574" d="M287 336L546 714H595L308 299V0H264V299L-21 714H29L287 336Z" />
<glyph unicode="Z" glyph-name="Z" horiz-adv-x="537" d="M28 676V714H529V676L45 38H538V0H-1V38L481 676H28Z" />
<glyph unicode="[" glyph-name="bracketleft" horiz-adv-x="241" d="M231 698H132V-151H231V-184H94V731H231V698Z" />
<glyph unicode="\" glyph-name="backslash" horiz-adv-x="333" d="M346 -17H305L-13 731H28L346 -17Z" />
<glyph unicode="]" glyph-name="bracketright" horiz-adv-x="241" d="M10 -151H109V698H10V731H147V-184H10V-151Z" />
<glyph unicode="^" glyph-name="asciicircum" horiz-adv-x="600" d="M561 237H519L301 657L81 237H39L275 690H327L561 237Z" />
<glyph unicode="_" glyph-name="underscore" horiz-adv-x="500" d="M500 -125H0V-75H500V-125Z" />
<glyph unicode="`" glyph-name="grave" horiz-adv-x="167" d="M141 591H104L-30 731H21L141 591Z" />
<glyph unicode="a" glyph-name="a" horiz-adv-x="500" d="M397 196V292Q386 280 364 273T322 263T266 258T211 252Q140 244 105 217T70 133Q70 84 105 53T205 21Q254 21 291 37T347 74T379 123T394 167T397 196ZM435 392V95Q435 75 436 65T445 44T469 33Q479 33
497 36V4Q475 0 466 0Q425 0 411 19T397 75V102H395Q376 53 325 21T204 -12Q32 -12 32 133Q32 168 44 194T74 236T118 263T168 278T221 285Q266 288 293 291T342 300T373 311T389 330T397 355T398 392Q398 403 392 418T371 451T327 481T255 493Q185 493 143 458T97
356H59Q63 440 113 483T255 526Q435 526 435 392Z" />
<glyph unicode="b" glyph-name="b" horiz-adv-x="556" d="M300 21Q364 21 407 59T468 151T485 269Q485 361 436 427T300 493Q203 493 154 432T104 269Q104 165 153 93T300 21ZM65 0V714H103V405H105Q126 463 180 494T300 526Q409 526 466 454T523 269Q523 199
506 146T465 64T409 17T351 -6T300 -12Q253 -12 215 3T154 42T121 83T105 115H103V0H65Z" />
<glyph unicode="c" glyph-name="c" horiz-adv-x="519" d="M481 355H443Q438 421 390 457T269 493Q177 493 124 425T71 262Q71 153 122 87T269 21Q340 21 389 65T448 181H486Q474 91 414 40T269 -12Q151 -12 92 66T33 262Q33 374 96 450T269 526Q357 526 415 483T481 355Z" />
<glyph unicode="d" glyph-name="d" horiz-adv-x="556" d="M262 21Q354 21 403 90T452 256Q452 354 403 423T261 493Q165 493 118 426T70 256Q70 158 119 90T262 21ZM453 0V110H451Q388 -12 254 -12Q144 -12 88 64T32 256Q32 376 90 451T261 526Q326 526 378 492T451
399H453V714H491V0H453Z" />
<glyph unicode="e" glyph-name="e" horiz-adv-x="519" d="M486 252H71Q69 155 119 88T260 21Q333 21 381 62T444 174H482Q467 84 410 36T260 -12Q152 -12 92 62T33 248Q31 362 90 444T260 526Q375 526 433 448T486 252ZM71 285H448Q446 371 396 432T260 493Q179
493 129 431T71 285Z" />
<glyph unicode="f" glyph-name="f" horiz-adv-x="241" d="M92 481H0V514H92V620Q92 671 123 696T205 722Q225 722 250 717V684Q225 689 205 689Q130 689 130 617V514H237V481H130V0H92V481Z" />
<glyph unicode="g" glyph-name="g" horiz-adv-x="537" d="M255 493Q167 493 119 428T71 273Q71 178 119 115T255 52Q344 52 393 116T442 273T394 429T255 493ZM443 514H481V27Q481 13 481 2T476 -35T464 -80T440 -123T401 -162T342 -187T259 -196Q66 -196 58 -36H96Q102
-101 147 -132T260 -163Q311 -163 348 -147T402 -110T430 -60T441 -15T443 18V136H441Q386 19 255 19Q146 19 90 89T33 273Q33 380 92 453T255 526Q317 526 369 495T441 407H443V514Z" />
<glyph unicode="h" glyph-name="h" horiz-adv-x="519" d="M56 714H94V404H96Q115 460 166 493T280 526Q323 526 356 516T408 486T439 447T456 399T462 356T463 318V0H425V325Q425 493 279 493Q194 493 144 434T94 278V0H56V714Z" />
<glyph unicode="i" glyph-name="i" horiz-adv-x="168" d="M103 0H65V514H103V0ZM103 611H65V714H103V611Z" />
<glyph unicode="j" glyph-name="j" horiz-adv-x="168" d="M65 514H103V-55Q103 -115 81 -149T-2 -184Q-24 -184 -34 -183V-150Q-22 -152 -9 -152Q32 -152 48 -131T65 -52V514ZM103 611H65V714H103V611Z" />
<glyph unicode="k" glyph-name="k" horiz-adv-x="463" d="M58 0V714H96V241L413 514H468L243 322L484 0H432L213 293L96 194V0H58Z" />
<glyph unicode="l" glyph-name="l" horiz-adv-x="168" d="M65 714H103V0H65V714Z" />
<glyph unicode="m" glyph-name="m" horiz-adv-x="796" d="M57 0V514H95V409H97Q109 458 155 492T258 526Q326 526 365 494T413 417H415Q462 526 578 526Q651 526 695 482T739 351V0H701V352Q701 389 691 416T667 458T634 480T603 491T578 493Q506 493 462 444T417
304V0H379V352Q379 397 366 428T330 471T292 488T258 493Q195 493 145 444T95 304V0H57Z" />
<glyph unicode="n" glyph-name="n" horiz-adv-x="519" d="M56 0V514H94V404H96Q115 460 166 493T280 526Q323 526 356 516T408 486T439 447T456 399T462 356T463 318V0H425V325Q425 493 279 493Q194 493 144 434T94 278V0H56Z" />
<glyph unicode="o" glyph-name="o" horiz-adv-x="537" d="M32 143T32 257T95 448T268 526T440 449T504 257T441 66T268 -12T96 65ZM70 355T70 257T123 90T268 21T413 90T466 257T413 424T268 493T123 424Z" />
<glyph unicode="p" glyph-name="p" horiz-adv-x="556" d="M292 21Q387 21 436 87T485 256Q485 354 437 423T292 493T150 425T104 256Q104 207 113 167T143 93T202 40T292 21ZM103 514V396H105Q120 444 168 485T292 526Q405 526 464 449T523 256Q523 134 465 61T292
-12Q225 -12 176 17T105 107H103V-184H65V514H103Z" />
<glyph unicode="q" glyph-name="q" horiz-adv-x="556" d="M261 21Q354 21 403 90T452 258Q452 355 403 424T262 493Q169 493 120 425T70 258Q70 156 117 89T261 21ZM453 -184V115H451Q431 56 379 22T261 -12Q149 -12 91 63T32 258Q32 373 88 449T254 526Q388 526
451 404H453V514H491V-184H453Z" />
<glyph unicode="r" glyph-name="r" horiz-adv-x="278" d="M94 514V400H97Q112 451 168 485T294 517V479Q213 489 152 429Q122 398 110 368T94 281V0H56V514H94Z" />
<glyph unicode="s" glyph-name="s" horiz-adv-x="481" d="M36 171H74Q78 101 125 61T244 21Q272 21 298 26T350 42T391 75T407 130Q407 169 380 193T327 226T245 245Q236 247 231 248Q190 256 165 264T111 288T68 330T54 394Q54 442 83 473T152 515T240 526Q327
526 378 486T430 362H392Q391 429 350 461T240 493Q180 493 136 469T92 394Q92 367 104 348T140 317T189 298T247 284Q258 282 263 281Q308 273 335 265T391 240T432 196T445 130Q445 90 427 61T378 17T314 -5T244 -12Q153 -12 96 36T36 171Z" />
<glyph unicode="t" glyph-name="t" horiz-adv-x="259" d="M245 514V481H133V122Q133 64 158 48T244 33V0Q211 -2 187 1T140 15T105 53T95 122V481H0V514H95V674H133V514H245Z" />
<glyph unicode="u" glyph-name="u" horiz-adv-x="519" d="M463 514V0H425V110H423Q404 54 353 21T239 -12Q196 -12 163 -2T111 28T80 67T63 115T57 158T56 196V514H94V189Q94 21 240 21Q325 21 375 80T425 236V514H463Z" />
<glyph unicode="v" glyph-name="v" horiz-adv-x="444" d="M446 514L252 0H205L-2 514H42L228 44H230L404 514H446Z" />
<glyph unicode="w" glyph-name="w" horiz-adv-x="704" d="M39 514L184 44H186L326 514H377L518 44H520L664 514H706L541 0H494L353 466H351L209 0H161L-2 514H39Z" />
<glyph unicode="x" glyph-name="x" horiz-adv-x="444" d="M-6 0L196 270L8 514H61L222 299L384 514H433L247 270L450 0H398L222 241L42 0H-6Z" />
<glyph unicode="y" glyph-name="y" horiz-adv-x="444" d="M209 3L-6 514H39L230 45L406 514H449L229 -55Q192 -143 169 -161Q150 -176 124 -180T49 -184V-151Q90 -151 113 -144T156 -118Q172 -102 209 3Z" />
<glyph unicode="z" glyph-name="z" horiz-adv-x="426" d="M55 33H417V0H9V36L354 481H36V514H401V478L55 33Z" />
<glyph unicode="{" glyph-name="braceleft" horiz-adv-x="333" d="M293 731V698H245Q215 698 204 676T193 595V438Q193 400 186 371T173 326T153 298T137 283T123 276Q124 275 132 269T147 257T162 238T178 209T188 167T193 109V-48Q193 -106 204 -128T245 -151H293V-184H243Q199
-184 177 -158T155 -66V92Q155 252 83 254V292Q155 294 155 454V613Q155 678 177 704T243 731H293Z" />
<glyph unicode="|" glyph-name="bar" horiz-adv-x="222" d="M92 -214V786H130V-214H92Z" />
<glyph unicode="}" glyph-name="braceright" horiz-adv-x="333" d="M40 -184V-151H88Q118 -151 129 -129T140 -48V109Q140 141 144 167T155 209T170 238T186 257T200 269T210 276Q177 294 162 324Q140 367 140 438V595Q140 653 129 675T88 698H40V731H90Q134 731
156 705T178 613V454Q178 294 250 292V254Q178 252 178 92V-66Q178 -131 156 -157T90 -184H40Z" />
<glyph unicode="~" glyph-name="asciitilde" horiz-adv-x="600" d="M500 312L528 284Q473 199 407 199Q367 199 293 237Q233 267 201 267Q135 267 102 192L73 222Q99 265 125 285T195 305Q234 305 306 273Q312 270 327 262T352 250T377 241T408 237Q435 237 460
260T500 312Z" />
</font>
</defs>
</svg>
