<?xml version="1.0" standalone="no"?>
<!DOCTYPE svg PUBLIC "-//W3C//DTD SVG 1.1//EN" "http://www.w3.org/Graphics/SVG/1.1/DTD/svg11.dtd" >
<svg xmlns="http://www.w3.org/2000/svg">
<metadata>
This is a custom SVG webfont generated by Font Squirrel.
Copyright   : Copyright C 1996 Emigre Graphics Designed by Zuzana Licko
</metadata>
<defs>
<font id="MrsEavesBold" horiz-adv-x="1280" >
<font-face units-per-em="2048" ascent="1638" descent="-410" />
<missing-glyph horiz-adv-x="477" />
<glyph unicode=" "  horiz-adv-x="477" />
<glyph unicode="&#x09;" horiz-adv-x="477" />
<glyph unicode="&#xa0;" horiz-adv-x="477" />
<glyph unicode="!" horiz-adv-x="673" d="M184 1106q0 63 45 110.5t108.5 47.5t112 -47.5t48.5 -110.5q0 -76 -28 -148.5t-59.5 -207t-37.5 -355.5h-70q-6 219 -36.5 355.5t-56.5 208t-26 147.5zM223 100.5q0 49.5 33 84t82 34.5t84 -34.5t35 -84.5q0 -47 -35 -81.5t-84 -34.5t-82 33.5t-33 83z" />
<glyph unicode="&#x22;" horiz-adv-x="876" d="M117 1124q0 57 39 98.5t94 41.5t96 -41t41 -99q0 -18 -50 -170.5t-65 -330.5h-47q-14 178 -61 330.5t-47 170.5zM492 1124q0 57 38.5 98.5t94 41.5t97.5 -41t42 -99q0 -18 -51 -170.5t-64 -330.5h-49q-12 178 -60 330.5t-48 170.5z" />
<glyph unicode="#" horiz-adv-x="890" d="M55 518l25 144h141l33 192h-141l26 141h142l38 234h117l-41 -234h185l38 234h115l-39 -234h144l-25 -141h-143l-33 -192h143l-26 -144h-144l-37 -233h-116l41 233h-185l-39 -233h-114l39 233h-144zM338 662h182l33 192h-182z" />
<glyph unicode="$" horiz-adv-x="1019" d="M92 303q8 14 25 21q16 7 30 6q21 0 38 -14q30 -24 50.5 -65.5t69.5 -85.5t121 -59v443l-98 51q-96 49 -159 131t-63 187q0 121 90.5 202.5t229.5 89.5v189h106v-193q174 -23 250 -131q31 -44 31 -78q0 -26 -18 -47q-14 -16 -37 -22q-33 -10 -58.5 10t-41 54t-49.5 72 t-77 52v-379l144 -73q102 -53 156.5 -133t54.5 -164q0 -152 -101.5 -246t-253.5 -105v-186h-106v190q-190 25 -295 148q-49 58 -49 100q0 19 10 35zM301 975q0 -106 125 -180v327q-53 -12 -89 -52t-36 -95zM532 100q72 10 116 55.5t44 116.5q0 129 -160 222v-394z" />
<glyph unicode="%" horiz-adv-x="1562" d="M88 969q0 121 99.5 208t238.5 87q137 0 236.5 -87t99.5 -208t-99.5 -207t-236.5 -86q-139 0 -238.5 86t-99.5 207zM291 969q0 -82 35.5 -148.5t99 -66.5t98.5 65.5t35 149.5t-35 149.5t-98.5 65.5t-99 -65.5t-35.5 -149.5zM365 6l757 1264l80 -45l-756 -1262zM801 262 q0 121 99 207t236.5 86t237 -86t99.5 -207t-99.5 -208t-237 -87t-236.5 87t-99 208zM1001 262q0 -84 36 -149.5t99.5 -65.5t99.5 65.5t36 149.5q0 82 -36 148.5t-99.5 66.5t-99.5 -66.5t-36 -148.5z" />
<glyph unicode="&#x26;" horiz-adv-x="1345" d="M94 324q0 106 62.5 180t177.5 147q-119 176 -119 318q0 131 108.5 213t268.5 82q137 0 231 -61.5t94 -174.5q0 -63 -36.5 -118.5t-74.5 -83t-124 -80t-119 -74.5q61 -90 318 -371q20 39 36 94q13 42 13 72q0 36 -19 55q-35 35 -161 35v59h479v-59q-109 0 -151 -39 t-89 -174q-14 -47 -45 -113q106 -113 199 -112q61 0 133 71l41 -38q-127 -186 -258 -187q-98 0 -230 113q-121 -113 -313 -113q-178 0 -300 94.5t-122 264.5zM344 307q0 -104 69.5 -175t170.5 -71q96 0 182 76q-256 270 -350 398q-72 -99 -72 -228zM449 1001q0 -133 61 -247 q100 63 154.5 125.5t54.5 148.5q0 66 -36 102.5t-91 36.5q-63 0 -103 -51.5t-40 -114.5z" />
<glyph unicode="'" horiz-adv-x="501" d="M117 1124q0 57 39 98.5t94 41.5t96 -41t41 -99q0 -18 -50 -170.5t-65 -330.5h-47q-14 178 -61 330.5t-47 170.5z" />
<glyph unicode="(" horiz-adv-x="733" d="M137 604q0 426 492 832l55 -52q-319 -360 -319 -780t319 -780l-53 -51q-494 403 -494 831z" />
<glyph unicode=")" horiz-adv-x="733" d="M49 -176q322 362 322 780t-322 780l57 52q492 -406 492 -832q0 -428 -494 -831z" />
<glyph unicode="*" horiz-adv-x="870" d="M92 772q12 47 51 68q23 12 96.5 15t131.5 24q-55 20 -129 24t-97 19q-39 23 -51 66q-5 17 -4 32q0 26 12 51q23 39 69 51q16 4 31 5q28 0 52 -15q25 -14 65.5 -77.5t85.5 -102.5q-10 57 -43.5 123.5t-33.5 95.5q0 45 31.5 79t76.5 34t78 -34t33 -79q0 -29 -35 -94.5 t-45 -120.5q43 37 85 98.5t66 73.5q25 15 56 15q13 0 27 -3q46 -10 67 -49q15 -25 15 -53q0 -15 -5 -32q-12 -46 -51 -68q-23 -12 -97.5 -15.5t-131.5 -23.5q55 -18 127.5 -23.5t99.5 -19.5q39 -23 51 -67q5 -17 5 -32q0 -26 -13 -49q-23 -39 -69 -51q-16 -4 -31 -4 q-28 0 -52 14q-23 14 -64.5 76.5t-84.5 99.5q10 -55 43 -121.5t33 -93.5q0 -45 -32 -78.5t-75 -33.5q-45 0 -78.5 33.5t-33.5 78.5q0 27 34.5 92.5t47.5 122.5q-45 -37 -87.5 -98t-66.5 -74q-25 -15 -55 -15q-14 0 -28 3q-46 10 -67 49q-15 24 -14 52q0 15 4 32z" />
<glyph unicode="+" horiz-adv-x="937" d="M102 375v157h287v287h160v-287h287v-157h-287v-289h-160v289h-287z" />
<glyph unicode="," horiz-adv-x="641" d="M176 114.5q0 53.5 37 92.5t90 39q59 0 104.5 -43t45.5 -117q0 -96 -60.5 -198.5t-171.5 -172.5l-41 41q119 123 133 228h-10q-53 0 -90 38.5t-37 92z" />
<glyph unicode="-" horiz-adv-x="937" d="M170 340v158h598v-158h-598z" />
<glyph unicode="." horiz-adv-x="641" d="M176 114.5q0 53.5 37 92.5t90 39t93 -39t40 -92.5t-40 -92t-93 -38.5t-90 38.5t-37 92z" />
<glyph unicode="/" horiz-adv-x="712" d="M29 -2l555 1272l100 -39l-555 -1268z" />
<glyph unicode="0" horiz-adv-x="1212" d="M129 444q0 197 140.5 337.5t337 140.5t336.5 -140.5t140 -337.5q0 -199 -140 -339t-336.5 -140t-337 140t-140.5 339zM311 444q0 -127 87 -216t208 -89t208 89t87 216q0 125 -87 215.5t-208 90.5t-208 -90.5t-87 -215.5z" />
<glyph unicode="1" horiz-adv-x="827" d="M102 0v59q127 0 162 43t35 197v291q0 154 -35 195.5t-162 41.5v60h623v-60q-127 0 -162 -42t-35 -195v-291q0 -154 35 -197t162 -43v-59h-623z" />
<glyph unicode="2" horiz-adv-x="1132" d="M128 656q0 103 101 183q106 83 279 83q201 0 320.5 -79t119.5 -196q0 -102 -65.5 -176t-169.5 -137l-240 -146h485l-51 -350h-43q0 102 -43 132t-196 30h-473v49l385 316q139 117 139 256q0 86 -49 141t-140 55q-111 0 -156 -80q-19 -34 -20 -76q0 -58 37 -133l-96 -63 q-124 75 -124 191z" />
<glyph unicode="3" horiz-adv-x="1075" d="M124 646q-1 9 -1 18q0 99 94 175q102 83 272 83q182 0 304 -74t122 -201q0 -172 -217 -301l-100 -57q152 -20 252 -115.5t100 -214.5q0 -156 -129 -249t-311 -93q-207 0 -324 121q-56 60 -56 108q0 15 5 29q10 31 49 37q29 6 53.5 -12.5t45 -49l44 -62.5t66.5 -54.5 t101 -22.5q84 0 129 69.5t45 178.5q0 197 -140 277q-12 -10 -28 -28l-28 -30q-11 -12 -26.5 -24.5t-27.5 -11.5t-31 12q-14 12 -17 25.5t8 29.5t19.5 25.5t28.5 29.5l113 119q51 51 78.5 115.5t27.5 113.5q0 94 -45 149.5t-123 55.5q-100 0 -145 -83q-19 -35 -19 -77 q0 -58 35 -129l-96 -63q-119 71 -128 181z" />
<glyph unicode="4" horiz-adv-x="1157" d="M74 86v55l606 867h53v-830h6q131 0 172 32t66 124l10 41h60l-17 -289h-297v-135q0 -154 35 -197t162 -43v-59h-623v59q127 0 162 43t35 197v135h-430zM211 178h293v416z" />
<glyph unicode="5" horiz-adv-x="1026" d="M133 -147q0 59 57 59q39 0 61.5 -32t34 -68.5t52.5 -68.5t113 -32q82 0 136 94.5t54 239.5q0 143 -54.5 233.5t-135.5 90.5q-72 0 -116 -37t-81 -148h-92l63 703h365q131 0 172 31.5t63 123.5h47l-49 -385h-520l-31 -276q27 37 88.5 63.5t124.5 26.5q176 0 294 -124 t118 -302q0 -180 -122 -304t-308 -124q-145 0 -239.5 80t-94.5 156z" />
<glyph unicode="6" horiz-adv-x="1091" d="M129 545q0 180 54.5 342t169 272.5t263.5 110.5q156 0 254 -88q49 -44 50 -79q0 -18 -13 -34q-6 -10 -16 -16q-29 -14 -44.5 -6t-38 30.5t-43 46t-59 43t-88.5 19.5q-236 0 -251 -506q63 53 176 53q172 0 301 -112.5t129 -270t-122 -271.5t-292 -114q-68 0 -134.5 25.5 t-137 84t-114.5 180.5t-44 290zM367 569q0 -504 192 -503q160 0 160 286q0 283 -176 283q-133 0 -176 -66z" />
<glyph unicode="7" horiz-adv-x="980" d="M125 477l86 590h41q0 -102 43 -132t197 -30h399v-57l-457 -1151q-35 -82 -98 -82q-47 0 -70 45q-10 19 -9 43q0 32 17 72l449 899h-307q-92 0 -140.5 -17.5t-65.5 -46t-32 -92.5l-10 -41h-43z" />
<glyph unicode="8" horiz-adv-x="1116" d="M129 315q0 61 19.5 110.5t63.5 90.5t78 63.5t101 61.5q16 10 25 14q-109 88 -167.5 161t-58.5 153q0 125 107.5 210t251.5 85q141 0 250.5 -79t109.5 -184q0 -94 -56 -156.5t-165 -129.5q98 -74 149.5 -119t101.5 -122t50 -150q0 -152 -129 -255.5t-301 -103.5 q-174 0 -302 101.5t-128 248.5zM344 299q0 -94 57.5 -166t157.5 -72q88 0 141.5 59.5t53.5 143.5q0 82 -64.5 156t-187.5 170q-158 -127 -158 -291zM424 1036q0 -111 174 -252q113 109 113 232q0 70 -45 110.5t-107 40.5q-59 0 -97 -40t-38 -91z" />
<glyph unicode="9" horiz-adv-x="1091" d="M119 538.5q0 157.5 121.5 270.5t291.5 113q68 0 135.5 -26t138.5 -84t115 -179t44 -289q0 -180 -54.5 -343t-169 -273.5t-264.5 -110.5q-158 0 -256 90q-49 45 -49 80q0 18 12 33q6 8 17 14q31 14 46 7t37.5 -29.5t43 -47t59.5 -44t88 -19.5q233 0 250 508 q-66 -55 -176 -55q-172 0 -301 113.5t-129 271zM375 537q0 -285 174 -285q131 0 176 67q0 504 -193 504q-157 1 -157 -286z" />
<glyph unicode=":" horiz-adv-x="641" d="M231 100q0 49 34 84t81 35q49 0 84 -34.5t35 -84.5q0 -47 -35 -81.5t-84 -34.5q-47 0 -81 34.5t-34 81.5zM231 487q0 49 34 84t81 35q49 0 84 -34.5t35 -84.5q0 -47 -35 -81.5t-84 -34.5q-47 0 -81 34.5t-34 81.5z" />
<glyph unicode=";" horiz-adv-x="641" d="M231 98q0 47 34 83t79 36q53 0 94 -39t41 -106q0 -86 -54 -178.5t-153 -155.5l-36 37q104 111 118 205h-10q-45 0 -79 35.5t-34 82.5zM231 487q0 49 34 84t81 35q49 0 84 -34.5t35 -84.5q0 -47 -35 -81.5t-84 -34.5q-47 0 -81 34.5t-34 81.5z" />
<glyph unicode="&#x3c;" horiz-adv-x="1024" d="M154 549l692 444l31 -45l-359 -399l359 -399l-31 -48z" />
<glyph unicode="=" horiz-adv-x="937" d="M170 221v160h598v-160h-598zM170 512v160h598v-160h-598z" />
<glyph unicode="&#x3e;" horiz-adv-x="1024" d="M147 150l359 399l-359 399l33 45l690 -444l-690 -447z" />
<glyph unicode="?" horiz-adv-x="1050" d="M164 1026q0 106 106.5 172t227.5 66q207 0 332.5 -115t125.5 -250q0 -184 -128 -294.5t-330 -135.5v-111h-92v357q174 0 285.5 65.5t111.5 177.5q0 88 -87 156t-218 68q-84 0 -135.5 -31t-51.5 -61q0 -47 70 -48q37 0 63.5 -25.5t26.5 -60.5q0 -51 -44 -78.5t-87 -27.5 q-66 0 -121 43t-55 133zM338 100.5q0 49.5 32.5 84t82 34.5t83 -34.5t33.5 -84.5q0 -47 -33.5 -81.5t-83 -34.5t-82 33.5t-32.5 83z" />
<glyph unicode="@" horiz-adv-x="1449" d="M78 563q0 297 213 509t512 212q250 0 413.5 -151.5t163.5 -395.5q0 -207 -127 -360.5t-266 -153.5q-94 0 -141 82q-39 -39 -92.5 -63.5t-94.5 -24.5q-133 0 -197 114q-44 77 -44 178q0 48 10 101q29 160 143.5 272.5t247.5 112.5q70 0 133 -32h138l-99 -547 q-4 -22 -4 -39q0 -52 43 -51q82 0 164 114.5t82 292.5q0 197 -131 313.5t-314 116.5q-238 0 -404.5 -179t-166.5 -415q0 -238 140.5 -388t359.5 -150q209 0 430 139l39 -57q-238 -178 -486 -179q-279 0 -472 180.5t-193 448.5zM604 602q-11 -70 -11 -123q0 -155 99 -155 q49 0 93 48t59 115l65 383q-39 35 -94 35q-76 0 -132 -90t-79 -213z" />
<glyph unicode="A" d="M-78 0v59q106 0 155.5 36t96.5 145l444 1024h44l446 -1024q47 -109 91 -145t159 -36v-59h-672v59q131 0 163 37q14 16 14 41q0 32 -23 78l-86 195h-406l-84 -195q-21 -45 -21 -76q0 -27 16 -44q34 -36 159 -36v-59h-496zM389 502h326l-164 375z" />
<glyph unicode="B" horiz-adv-x="1345" d="M78 0v59q127 0 160.5 43t33.5 197v631q0 154 -33.5 196.5t-160.5 42.5v60h696q166 0 267.5 -88t101.5 -219q0 -166 -152 -254q119 -37 186.5 -124t67.5 -200q0 -147 -113.5 -245.5t-300.5 -98.5h-753zM528 319q0 -145 35 -186t162 -41h-14q127 0 193.5 72t66.5 184 q0 111 -66.5 183.5t-193.5 72.5h-183v-285zM528 696h115q111 0 168 61.5t57 157.5q0 94 -57 158t-168 64h-115v-441z" />
<glyph unicode="C" horiz-adv-x="1417" d="M145 614.5q0 268.5 184.5 459t444.5 190.5q217 0 381 -174q31 25 53 116h58v-450h-60q-41 197 -154.5 303t-269.5 106q-100 0 -173.5 -49t-112.5 -132t-56.5 -175t-17.5 -194.5t17.5 -194.5t56.5 -175t112.5 -132.5t173.5 -49.5q154 0 268.5 108t155.5 302h60v-450h-58 q-25 96 -53 116q-168 -174 -381 -174q-260 0 -444.5 190.5t-184.5 459z" />
<glyph unicode="D" horiz-adv-x="1460" d="M78 0v59q127 0 160.5 43t33.5 197v631q0 154 -33.5 196.5t-160.5 42.5v60h676q340 0 511 -172t171 -442.5t-171 -442.5t-511 -172h-676zM528 1137v-813q0 -150 35 -191t162 -41h20q96 0 169 33t116 84t69.5 122.5t36 139.5t9.5 143.5t-9.5 143t-36 139.5t-69.5 123 t-115.5 84t-169.5 33h-217z" />
<glyph unicode="E" horiz-adv-x="1312" d="M78 59q127 0 160.5 43t33.5 197v631q0 154 -33.5 196.5t-160.5 42.5v60h1055l16 -289h-59l-11 41q-25 92 -65.5 124t-171.5 32h-314v-441h113q154 0 196 35t42 162h59v-485h-59q0 129 -42 162.5t-196 33.5h-113v-272q0 -154 35 -197t162 -43h184q92 0 140.5 18.5t66 47 t31.5 90.5l10 41h60l-17 -289h-1122v59z" />
<glyph unicode="F" horiz-adv-x="1216" d="M78 0v59q127 0 160.5 43t33.5 197v631q0 154 -33.5 196.5t-160.5 42.5v60h1087l19 -289h-62l-10 41q-23 90 -63.5 123t-171.5 33h-349v-441h113q154 0 196 35t42 162h59v-485h-59q0 129 -42 162.5t-196 33.5h-113v-305q0 -154 35 -197t162 -43v-59h-647z" />
<glyph unicode="G" horiz-adv-x="1484" d="M145 614.5q0 268.5 184.5 459t444.5 190.5q217 0 381 -174q31 25 53 116h58v-450h-60q-41 197 -154.5 303t-269.5 106q-100 0 -173.5 -49t-112.5 -132t-56.5 -175t-17.5 -194.5t17.5 -194.5t56.5 -175t112.5 -132.5t173.5 -49.5q133 0 220.5 61.5t87.5 192.5 q0 68 -44.5 100t-148.5 32v59h604v-59q-127 0 -160.5 -42t-33.5 -196v-139q-125 0 -280 -53.5t-253 -53.5q-260 0 -444.5 190.5t-184.5 459z" />
<glyph unicode="H" horiz-adv-x="1685" d="M78 0v59q127 0 160.5 43t33.5 197v631q0 154 -33.5 196.5t-160.5 42.5v60h647v-60q-127 0 -162 -43t-35 -196v-232h629v232q0 156 -33.5 197.5t-162.5 41.5v60h649v-60q-127 0 -162 -43t-35 -196v-631q0 -154 35 -197t162 -43v-59h-649v59q129 0 162.5 42t33.5 198v307 h-629v-307q0 -154 35 -197t162 -43v-59h-647z" />
<glyph unicode="I" horiz-adv-x="802" d="M78 0v59q127 0 160.5 43t33.5 197v631q0 154 -33.5 196.5t-160.5 42.5v60h647v-60q-127 0 -162 -43t-35 -196v-631q0 -154 35 -197t162 -43v-59h-647z" />
<glyph unicode="J" horiz-adv-x="784" d="M-221 -205q0 37 23.5 61.5t60.5 24.5t60.5 -24.5t23.5 -61.5q0 -61 40 -110.5t117 -49.5q168 0 168 256v1039q0 154 -33.5 196.5t-160.5 42.5v60h647v-60q-127 0 -162 -43t-35 -196v-938q0 -219 -116.5 -334t-300.5 -115q-135 0 -233.5 71.5t-98.5 180.5z" />
<glyph unicode="K" horiz-adv-x="1613" d="M78 0v59q127 0 160.5 43t33.5 197v631q0 154 -33.5 196.5t-160.5 42.5v60h647v-60q-127 0 -162 -43t-35 -196v-275l430 346q25 20 47.5 45t40 54.5t-1 49t-77.5 19.5v60h493v-60q-82 0 -149.5 -23.5t-104.5 -50t-123 -94.5l-290 -233l567 -588q49 -49 133 -85t131 -36 v-59h-680v59q84 0 108 29q7 9 7 20q0 27 -39 72l-404 438l-88 -71v-248q0 -154 35 -197t162 -43v-59h-647z" />
<glyph unicode="L" horiz-adv-x="1296" d="M78 1169v60h647v-60q-127 0 -162 -43t-35 -196v-598q0 -154 35 -197t162 -43h236q92 0 140 18.5t65.5 47t31.5 90.5l10 41h60l-17 -289h-1173v59q127 0 160.5 43t33.5 197v631q0 154 -33.5 196.5t-160.5 42.5z" />
<glyph unicode="M" horiz-adv-x="1740" d="M78 0v59q127 0 160.5 43t33.5 197v631q0 154 -33.5 196.5t-160.5 42.5v60h409l396 -887l383 887h399v-60q-129 0 -163 -42t-34 -197v-631q0 -156 34 -198t163 -42v-59h-639v59q127 0 162 43t35 197v592l-402 -926h-45l-411 924v-590q0 -154 34.5 -197t161.5 -43v-59h-483 z" />
<glyph unicode="N" horiz-adv-x="1533" d="M78 0v59q127 0 160.5 43t33.5 197v631q0 154 -33.5 196.5t-160.5 42.5v60h409l684 -815v516q0 154 -34.5 196.5t-161.5 42.5v60h485v-60q-129 0 -162.5 -42t-33.5 -197v-965h-52l-847 1012v-678q0 -154 34.5 -197t161.5 -43v-59h-483z" />
<glyph unicode="O" horiz-adv-x="1654" d="M145 614.5q0 268.5 201 459t481 190.5q283 0 483.5 -190.5t200.5 -459t-200.5 -459t-483.5 -190.5q-281 0 -481.5 190.5t-200.5 459zM420 614.5q0 -133.5 40 -254t136 -209t231 -88.5q137 0 233.5 88.5t135.5 209t39 254t-39 254t-135 208.5t-234 88q-135 0 -231 -88 t-136 -208.5t-40 -254z" />
<glyph unicode="P" horiz-adv-x="1224" d="M78 0v59q127 0 160.5 43t33.5 197v631q0 154 -33.5 196.5t-160.5 42.5v60h686q186 0 300 -99.5t114 -247t-114 -245.5t-300 -98h-236v-240q0 -154 35 -197t162 -43v-59h-647zM528 631h113q127 0 194.5 70.5t67.5 181t-67.5 182.5t-194.5 72h-113v-506z" />
<glyph unicode="Q" horiz-adv-x="1654" d="M145 614q0 268 201 459t481 191q283 0 483.5 -190.5t200.5 -459.5q0 -254 -178 -435t-436 -210q-61 -6 -143 -39.5t-136 -79.5q91 18 162 19q23 0 44 -2q85 -8 170 -41t147.5 -67.5t137.5 -62.5t140 -28q231 0 338 174l49 -20q-18 -55 -35.5 -96t-54.5 -99.5t-80 -96.5 t-109.5 -65.5t-146.5 -27.5q-94 0 -179 38t-146.5 91t-116.5 107.5t-113.5 92t-111.5 37.5q-68 0 -112 -20.5t-59.5 -45t-34 -46t-40.5 -25.5q-29 -4 -49.5 14.5t-20.5 51.5q0 49 94.5 125.5t225.5 115.5q-250 43 -411 223t-161 418zM420 614.5q0 -133.5 40 -254t136 -209 t231 -88.5q137 0 233.5 88.5t135.5 209t39 254t-39 254t-135 208.5t-234 88q-135 0 -231 -88t-136 -208.5t-40 -254z" />
<glyph unicode="R" horiz-adv-x="1388" d="M78 0v59q127 0 160.5 43t33.5 197v631q0 154 -33.5 196.5t-160.5 42.5v60h686q186 0 300 -99.5t114 -246.5q0 -135 -99.5 -232.5t-263.5 -111.5l199 -217q133 -145 209.5 -197.5t173.5 -65.5v-59h-445l-364 539h-60v-240q0 -154 35 -197t162 -43v-59h-647zM528 631h113 q127 0 194.5 70.5t67.5 181t-67.5 182.5t-194.5 72h-113v-506z" />
<glyph unicode="S" horiz-adv-x="1019" d="M100 -35v451h60q31 -160 139.5 -259.5t239.5 -99.5q92 0 148 52.5t56 150.5q0 57 -40.5 113.5t-110.5 93.5l-197 102q-141 72 -208.5 158t-67.5 229q0 127 104.5 217.5t251.5 90.5q135 0 250 -84q47 39 59 94h58v-451h-60q-12 147 -80.5 249t-214.5 102 q-66 0 -115.5 -45.5t-49.5 -118.5q0 -51 43 -110.5t120 -98.5l197 -101q119 -61 191.5 -154t72.5 -208q0 -162 -122 -267.5t-285 -105.5q-70 0 -133.5 20.5t-114.5 46t-72 29.5q-47 -39 -59 -96h-60z" />
<glyph unicode="T" horiz-adv-x="1314" d="M16 940l19 289h1245l16 -289h-59l-10 41q-14 61 -31.5 90t-66 47.5t-140.5 18.5h-205v-838q0 -154 35 -197t162 -43v-59h-647v59q127 0 160.5 43t33.5 197v838h-204q-131 0 -172 -33t-64 -123l-10 -41h-62z" />
<glyph unicode="U" horiz-adv-x="1501" d="M63 1169v60h650v-60q-129 0 -163 -42t-34 -197v-451q0 -190 89 -288.5t229 -98.5q137 0 219 98.5t82 288.5v451q0 156 -34 197.5t-163 41.5v60h502v-60q-127 0 -161 -43t-34 -196v-473q0 -231 -140 -361.5t-353 -130.5t-352.5 129t-139.5 363v473q0 154 -35 196.5 t-162 42.5z" />
<glyph unicode="V" d="M-78 1169v60h672v-60q-131 0 -163 -36q-14 -16 -14 -41q0 -32 23 -78l287 -666l289 666q21 45 21 76q0 27 -16 44q-34 36 -159 35v60h496v-60q-106 0 -155.5 -35.5t-96.5 -144.5l-444 -1024h-44l-446 1024q-47 109 -91 144.5t-159 35.5z" />
<glyph unicode="W" horiz-adv-x="1560" d="M-88 1169v60h647v-60q-125 0 -157 -32q-17 -17 -16 -51q0 -30 13 -72l187 -576l250 791h47l258 -793l186 578q14 40 14 69q0 32 -17 51q-32 36 -140 35v60h479v-60q-123 0 -166 -34.5t-78 -145.5l-332 -1024h-45l-258 793l-252 -793h-45l-329 1024q-35 111 -78 145.5 t-168 34.5z" />
<glyph unicode="X" horiz-adv-x="1257" d="M-59 0v59q90 0 154.5 43t140.5 138l278 342l-254 407q-66 100 -127 140t-160 40v60h684v-60q-111 0 -136 -35q-9 -12 -8 -30q0 -35 34 -90l137 -219l180 219q44 54 44 89q0 66 -154 66v60h503v-60q-100 0 -155 -37.5t-139 -142.5l-228 -276l297 -473 q68 -102 128.5 -141.5t160.5 -39.5v-59h-686v59q117 0 140 36q7 11 7 27q0 35 -37 93l-178 285l-233 -285q-44 -54 -44 -90q0 -66 154 -66v-59h-503z" />
<glyph unicode="Y" horiz-adv-x="1296" d="M-68 1169v60h695v-60q-144 0 -144 -69q0 -34 35 -86l230 -346l229 346q40 59 40 94q0 15 -7 26q-25 36 -144 35v60h496v-60q-121 0 -173 -35.5t-122 -144.5l-293 -442v-248q0 -154 34 -197t161 -43v-59h-639v59q127 0 161.5 43t34.5 197v242l-297 448q-72 109 -130 144.5 t-167 35.5z" />
<glyph unicode="Z" horiz-adv-x="1212" d="M88 0v49l635 1104h-322q-92 0 -140 -18.5t-65.5 -46t-31.5 -89.5l-10 -41h-43l18 271h907v-45l-641 -1108h396q131 0 172 31.5t65 123.5l10 41h43l-18 -272h-975z" />
<glyph unicode="[" horiz-adv-x="768" d="M240 -180v1569h448v-82h-213v-1405h213v-82h-448z" />
<glyph unicode="\" horiz-adv-x="712" d="M-70 1217l97 53l757 -1256l-98 -51z" />
<glyph unicode="]" horiz-adv-x="768" d="M80 -98h213v1405h-213v82h448v-1569h-448v82z" />
<glyph unicode="^" horiz-adv-x="993" d="M51 606l447 658l444 -658l-47 -33l-397 324l-400 -324z" />
<glyph unicode="_" horiz-adv-x="733" d="M-2 0h737v-90h-737v90z" />
<glyph unicode="`" horiz-adv-x="827" d="M111 1221q0 29 20.5 52t54.5 23q51 0 117 -61l250 -231l-14 -19l-367 156q-61 33 -61 80z" />
<glyph unicode="a" horiz-adv-x="919" d="M80 145q0 123 117.5 190.5t337.5 100.5v2q0 109 -33 152t-101 43q-41 0 -75.5 -21.5t-34.5 -58.5q0 -41 -23.5 -64.5t-58.5 -23.5t-57.5 23.5t-22.5 64.5q0 74 89 119t208 45q170 0 247 -66.5t77 -212.5v-276q0 -78 45 -78q20 0 59 25l29 -56q-100 -76 -191 -76 q-135 0 -157 119q-92 -72 -142.5 -97.5t-116.5 -25.5q-78 0 -137 47t-59 125zM283 170q0 -82 82 -82q66 0 170 92v174q-131 -35 -191.5 -73.5t-60.5 -110.5z" />
<glyph unicode="b" horiz-adv-x="1044" d="M8 1153v59l393 52v-607q74 59 168 60q170 0 271.5 -107.5t101.5 -267.5t-102.5 -268.5t-270.5 -108.5q-147 0 -231 133l-107 -114h-61v929q0 154 -30 197t-132 43zM401 242q0 -76 41 -128.5t97 -52.5q76 0 114.5 79t38.5 202t-39 201t-114 78q-55 0 -96.5 -51.5 t-41.5 -129.5v-198z" />
<glyph unicode="c" horiz-adv-x="845" d="M102 324q0 176 111 284.5t268 108.5q121 0 191.5 -51.5t70.5 -114.5q0 -31 -22.5 -58.5t-69.5 -27.5q-33 0 -56.5 24.5t-23.5 57.5q0 88 -73 88q-143 0 -144 -311q0 -123 54.5 -190.5t152.5 -67.5t207 94l37 -60q-129 -135 -307 -135q-170 0 -283 102.5t-113 256.5z" />
<glyph unicode="d" horiz-adv-x="1060" d="M102 342q0 160 101.5 267.5t271.5 107.5q94 0 168 -60v256q0 154 -29.5 197t-132.5 43v59l393 52v-949q0 -154 30 -195.5t132 -41.5v-62l-358 -51q-6 10 -19 74q-78 -74 -184 -74q-168 0 -270.5 108.5t-102.5 268.5zM354 342q0 -125 39 -203t115 -78q53 0 94 52.5 t41 128.5v198q0 78 -41 129.5t-94 51.5q-76 0 -115 -77t-39 -202z" />
<glyph unicode="e" horiz-adv-x="886" d="M102 342q0 160 116 267.5t280 107.5q160 0 245 -112q61 -79 62 -160q0 -33 -10 -66h-447q-1 -21 -1 -41q0 -118 51 -185q60 -79 151 -79q145 0 244 86l34 -60q-55 -59 -141 -97t-170 -38q-180 0 -297 109.5t-117 267.5zM362 469h273v14q0 56 -29 94q-33 42 -98 41 q-111 1 -146 -149z" />
<glyph unicode="f" horiz-adv-x="690" d="M57 592v90h168v166q0 211 83 313.5t263 102.5q115 0 186.5 -57.5t71.5 -123.5q0 -35 -20.5 -59.5t-56.5 -24.5q-41 0 -64.5 29t-32 61.5t-30 61.5t-58.5 29q-63 0 -86.5 -54.5t-23.5 -189.5v-254h205v-90h-205v-293q0 -154 29.5 -197t131.5 -43v-59h-555v59q102 0 132 43 t30 197v293h-168z" />
<glyph unicode="g" horiz-adv-x="839" d="M61 -256q37 47 107 82l39 -23q-65 -69 -65 -126q0 -48 38 -75q41 -30 95.5 -45.5t109.5 -15.5q109 0 176.5 38t67.5 102q0 55 -61.5 86.5t-243.5 52.5q-256 27 -256 205q0 55 49 104t129 74q-68 31 -111 94t-43 141q0 115 90 197t215 82q123 0 213 -78q25 33 71 55.5 t81 22.5q113 0 141 -86q8 -23 8 -43q0 -36 -26 -62q-18 -19 -43 -19q-10 0 -21 3q-27 6 -40 24.5t-16 38t-14.5 34t-33.5 14.5q-31 0 -64 -33q49 -59 49 -150q0 -106 -79.5 -187t-202.5 -91q-139 -12 -168 -31q-20 -12 -20.5 -36.5t35.5 -34t139 -19.5q29 -2 43 -4 q178 -20 263 -104.5t85 -184.5q0 -131 -113 -212t-278 -81q-233 0 -332 109q-43 48 -44 97q0 42 31 85zM283 438q0 -86 29.5 -140t84.5 -54q57 0 86 54t29 140q0 88 -28.5 141.5t-86.5 53.5q-55 0 -84.5 -54.5t-29.5 -140.5z" />
<glyph unicode="h" horiz-adv-x="1126" d="M27 1153v59l391 52v-658q94 111 244 111q135 0 214.5 -86t79.5 -219v-113q0 -154 30 -197t132 -43v-59h-473v59q43 0 61.5 48.5t18.5 191.5v86q0 109 -26.5 163t-98.5 54q-70 0 -126 -53t-56 -150v-100q0 -154 29.5 -197t132.5 -43v-59h-553v59q102 0 131.5 43t29.5 197 v614q0 154 -29.5 197t-131.5 43z" />
<glyph unicode="i" horiz-adv-x="677" d="M80 0v59q102 0 132 43t30 197v68q0 154 -30 196.5t-132 42.5v60l393 51v-418q0 -154 29.5 -197t132.5 -43v-59h-555zM229 1061q0 53 37 92t90.5 39t92 -39t38.5 -92t-38.5 -93t-92 -40t-90.5 39t-37 94z" />
<glyph unicode="j" horiz-adv-x="583" d="M-211 -354q0 72 70 71q37 0 57.5 -28.5t27.5 -61.5t34.5 -61.5t76.5 -28.5q66 0 100.5 69.5t34.5 250.5v510q0 154 -29.5 196.5t-131.5 42.5v60l393 51v-877q0 -201 -83 -294t-251 -93q-133 0 -215 63.5t-84 129.5zM178 1061q0 53 37 92t90 39t92 -39t39 -92t-39 -93 t-92 -40t-90 39t-37 94z" />
<glyph unicode="k" horiz-adv-x="952" d="M27 0v59q102 0 131.5 43t29.5 197v614q0 154 -29.5 197t-131.5 43v59l391 52v-858l155 110q37 30 38 55q0 10 -6 19q-19 33 -95 33v59h428v-59q-104 0 -197 -74l-155 -119l239 -289q70 -82 156 -82v-59h-289l-274 326v-43q0 -135 25.5 -179.5t103.5 -44.5v-59h-520z" />
<glyph unicode="l" horiz-adv-x="677" d="M80 0v59q102 0 132 43t30 197v614q0 154 -30 197t-132 43v59l393 52v-965q0 -154 29.5 -197t132.5 -43v-59h-555z" />
<glyph unicode="m" horiz-adv-x="1712" d="M80 0v59q102 0 132 43t30 197v68q0 154 -30 196.5t-132 42.5v60l358 51q23 -43 29 -117q96 117 256 117q180 0 252 -152q111 152 282 152q135 0 210 -85t75 -220v-113q0 -154 30 -197t132 -43v-59h-473v59q43 0 61.5 48.5t18.5 191.5v86q0 109 -24.5 163t-90.5 54 q-70 0 -129 -54t-59 -149v-100q0 -154 29.5 -197t131.5 -43v-59h-473v59q43 0 61.5 48.5t18.5 191.5v86q0 109 -24.5 163t-89.5 54q-70 0 -129.5 -54t-59.5 -149v-100q0 -152 26.5 -196t110.5 -44v-59h-530z" />
<glyph unicode="n" horiz-adv-x="1212" d="M80 0v59q102 0 132 43t30 197v68q0 154 -30 196.5t-132 42.5v60l358 51q23 -43 29 -117q96 117 256 117q137 0 227 -87t90 -218v-113q0 -154 30 -197t134 -43v-59h-473v59q43 0 61.5 48.5t18.5 191.5v86q0 106 -34 161.5t-115 55.5q-70 0 -129.5 -54t-59.5 -149v-100 q0 -154 29.5 -197t132.5 -43v-59h-555z" />
<glyph unicode="o" horiz-adv-x="1030" d="M102 342q0 156 122 265.5t292 109.5t291 -109.5t121 -265.5t-121 -266.5t-291 -110.5t-292 110.5t-122 266.5zM354 342q0 -123 41 -202t121 -79t121 79t41 202t-41 201t-121 78t-121 -78t-41 -201z" />
<glyph unicode="p" horiz-adv-x="1044" d="M8 -453q102 0 132 43t30 197v580q0 154 -29.5 196.5t-132.5 42.5v60l359 51q6 -8 18 -74q78 74 184 74q170 0 271.5 -107.5t101.5 -267.5t-102.5 -268.5t-270.5 -108.5q-96 0 -168 62v-240q0 -154 30 -197t132 -43v-59h-555v59zM401 242q0 -76 41 -128.5t97 -52.5 q76 0 114.5 79t38.5 202t-39 201t-114 78q-55 0 -96.5 -51.5t-41.5 -129.5v-198z" />
<glyph unicode="q" horiz-adv-x="1044" d="M102 342q0 160 101.5 267.5t271.5 107.5q145 0 232 -131l108 114h59v-913q0 -154 30 -197t132 -43v-59h-555v59q102 0 132 43t30 197v240q-72 -61 -168 -62q-168 0 -270.5 108.5t-102.5 268.5zM354 342q0 -125 39 -203t115 -78q53 0 94 52.5t41 128.5v198q0 78 -41 129.5 t-94 51.5q-76 0 -115 -77t-39 -202z" />
<glyph unicode="r" horiz-adv-x="884" d="M80 0v59q102 0 132 43t30 197v68q0 154 -30 196.5t-132 42.5v60l358 51q18 -39 35 -148q33 61 94.5 104.5t122.5 43.5q94 0 138 -51.5t44 -116.5q0 -45 -28.5 -84t-79.5 -39q-35 0 -54.5 21.5t-25.5 46t-26.5 46t-57.5 21.5q-51 0 -89 -52t-38 -167v-43q0 -154 29.5 -197 t132.5 -43v-59h-555z" />
<glyph unicode="s" horiz-adv-x="716" d="M86 -35v299h59q0 -74 77 -143.5t173 -69.5q49 0 78 22.5t29 57.5t-31 61.5t-100 59.5l-115 51q-154 72 -154 209q0 104 74 154.5t168 50.5q41 0 81 -8.5t63.5 -16.5t43 -12t26.5 4t7 33h60v-238h-60q0 61 -60.5 108.5t-127.5 47.5q-43 0 -72 -19.5t-29 -50.5 q0 -33 29 -54.5t113 -57.5l100 -47q76 -35 117 -91.5t41 -117.5q0 -115 -83 -173.5t-196 -58.5q-45 0 -91 14.5t-71.5 27.5t-48 20.5t-32 -7t-9.5 -55.5h-59z" />
<glyph unicode="t" horiz-adv-x="620" d="M49 592v67q96 20 177 102.5t91 178.5h70v-258h178v-90h-178v-361q0 -150 92 -149q55 0 139 59l29 -57q-53 -47 -125.5 -83t-126.5 -36q-111 0 -174 66.5t-63 185.5v375h-109z" />
<glyph unicode="u" horiz-adv-x="1140" d="M8 623v59h393v-383q0 -219 148 -219q70 0 130 54t60 149v102q0 152 -29.5 195t-131.5 43v59h391v-367q0 -152 29.5 -194.5t134.5 -42.5v-62l-359 -51q-20 39 -31 119q-94 -119 -256 -119q-137 0 -227 88t-90 219v113q0 154 -30 196t-132 42z" />
<glyph unicode="v" horiz-adv-x="753" d="M-68 623v59h449v-59q-63 0 -79 -25q-6 -9 -6 -22q0 -22 17 -56l123 -264l123 264q16 36 16 59q0 12 -5 20q-13 24 -70 24v59h305v-59q-55 0 -88 -24t-58 -79l-258 -557h-57l-276 557q-27 57 -58 80t-78 23z" />
<glyph unicode="w" horiz-adv-x="1034" d="M-59 623v59h432v-59q-66 0 -80 -22q-5 -8 -5 -21q0 -22 15 -60l84 -203l141 365h68l149 -365l80 203q14 36 15 59q0 13 -5 21q-13 23 -71 23v59h305v-59q-57 0 -90 -21.5t-55 -81.5l-215 -557h-41l-166 395l-152 -395h-41l-231 557q-27 59 -55.5 81t-81.5 22z" />
<glyph unicode="x" horiz-adv-x="833" d="M-31 623v59h482v-59q-66 0 -76 -23q-2 -4 -2 -10q0 -24 35 -70l49 -63l61 63q42 45 42 70q0 32 -68 33v59h333v-59q-102 0 -196 -103l-121 -127l176 -231q49 -61 90 -82t107 -21v-59h-506v59q81 0 81 40q0 24 -30 63l-61 80l-76 -80q-43 -47 -44 -71q0 -4 2 -8 q9 -24 77 -24v-59h-326v59q82 0 180 103l135 143l-163 215q-47 59 -87.5 81t-93.5 22z" />
<glyph unicode="y" horiz-adv-x="733" d="M-68 623v59h449v-59q-66 0 -80 -23q-5 -8 -5 -20q0 -23 17 -60l119 -266l111 266q15 36 14 58q0 12 -4 21q-12 24 -70 24v59h303v-59q-102 0 -145 -103l-412 -997q-35 -76 -77 -76q-29 0 -55.5 17.5t-26.5 58.5q0 33 24.5 55.5t64.5 65.5t66 110l88 217l-245 549 q-44 103 -136 103z" />
<glyph unicode="z" horiz-adv-x="681" d="M37 0v35l307 565h-12q-133 0 -175 -25.5t-61 -95.5l-10 -41h-43l14 244h568v-33l-306 -567h39q133 0 175 25.5t61 95.5l10 41h43l-16 -244h-594z" />
<glyph unicode="{" horiz-adv-x="768" d="M86 590v33q47 16 67.5 24t52.5 34t44 58.5t22.5 93t10.5 146.5q0 53 10 98t23.5 80t40 67.5t48 53t60.5 47.5t61.5 40t68.5 37.5t67 37.5l47 -62q-117 -78 -149 -148.5t-32 -246.5q0 -106 -19.5 -178t-60 -110t-79.5 -55t-105 -34q66 -16 105 -33.5t79.5 -55.5t60 -109.5 t19.5 -178.5q0 -176 32 -246.5t149 -150.5l-47 -59q-20 12 -76 41.5t-79.5 44t-67.5 46.5t-64.5 59.5t-46 68.5t-35.5 91t-10 109q0 86 -10.5 146.5t-22.5 93.5t-44 58.5t-52.5 34t-67.5 24.5z" />
<glyph unicode="|" horiz-adv-x="552" d="M236 0v1450h90v-1450h-90z" />
<glyph unicode="}" horiz-adv-x="768" d="M59 -168q117 80 149 150.5t32 246.5q0 106 19.5 178t60 110t79.5 55.5t105 33.5q-66 16 -105 33.5t-79.5 55.5t-60 110t-19.5 178q0 176 -32 246.5t-149 148.5l47 62l75 -41q56 -31 80 -46l69 -46q45 -31 65.5 -59.5t46 -68.5t35.5 -90.5t10 -109.5q0 -106 11.5 -172 t43 -101.5t57.5 -49t83 -33.5v-33q-57 -20 -83 -33.5t-57.5 -49.5t-43 -101.5t-11.5 -172.5q0 -59 -10 -109t-35.5 -91t-46 -68.5t-65.5 -58.5l-69 -46q-24 -15 -79 -45l-76 -42z" />
<glyph unicode="~" horiz-adv-x="1036" d="M76 358q0 152 67.5 264.5t159.5 112.5q74 0 221.5 -77.5t208.5 -77.5q63 0 99 28.5t55 104.5h71q0 -170 -67.5 -277.5t-175.5 -107.5q-66 0 -218.5 79.5t-201.5 79.5t-90 -33.5t-58 -95.5h-71z" />
<glyph unicode="&#xa1;" horiz-adv-x="673" d="M184 -223q0 74 26 146.5t56.5 207.5t36.5 356h70q6 -172 26.5 -296.5t42 -177t39 -113t17.5 -124t-48.5 -110.5t-112 -47t-108.5 47.5t-45 110.5zM223 782q0 49 33 83t82 34t84 -35t35 -82q0 -49 -35 -83.5t-84 -34.5t-82 34.5t-33 83.5z" />
<glyph unicode="&#xa2;" horiz-adv-x="948" d="M119 528q0 164 107.5 271.5t254.5 120.5v344h94v-346q98 -12 159 -60.5t61 -101.5q0 -31 -22.5 -58.5t-70.5 -27.5q-33 0 -56 24.5t-23 57.5q0 63 -48 84v-564q12 -2 37 -2q98 0 207 95l37 -60q-115 -117 -281 -133v-2v-2v-2v-2v-2v-2v-2v-2v-2v-2v-2v-3v-2v-2v-2v-2v-2 v-2v-2v-2v-2v-2v-2v-2v-2v-2v-2v-2v-4v-2v-3v-2v-2v-2v-2v-2v-2v-2v-4v-2v-2v-2v-2v-4v-2v-2v-2v-4v-3v-2v-2v-4v-2v-2v-4v-2v-4v-2v-2v-4v-2v-2v-4v-2v-5v-2v-4v-2v-4v-2v-4v-2v-4v-2v-4v-2v-4v-2v-5v-2v-4v-4v-2v-4v-2v-4v-4v-2v-4v-4v-2v-5v-4v-2v-4v-4v-2v-4v-4v-2v-4 v-4v-4v-3v-4v-4v-4v-4v-2v-4v-4v-4v-4v-2v-5v-20h-94v344q-156 16 -259 114.5t-103 239.5zM371 528q0 -152 110 -221v514q-110 -66 -110 -293z" />
<glyph unicode="&#xa3;" horiz-adv-x="1050" d="M57 592v90h168v166q0 211 83 313.5t263 102.5q115 0 186.5 -57.5t71.5 -123.5q0 -35 -20.5 -59.5t-56.5 -24.5q-41 0 -64.5 29t-32 61.5t-30 61.5t-58.5 29q-63 0 -86.5 -54.5t-23.5 -189.5v-254h205v-90h-205v-260q0 -154 29.5 -197t131.5 -43h113q90 0 138.5 18.5 t65.5 47t34 90.5l10 41h59l-18 -289h-957v59q102 0 132 43t30 197v293h-168z" />
<glyph unicode="&#xa4;" horiz-adv-x="1024" d="M115 207l112 112q-61 84 -61 197q0 106 61 197l-112 110l84 84l18 -18l37 -37l41 -41l14 -16q86 63 199 63q111 0 194 -61l113 112l86 -84l-113 -112q61 -96 62 -197q0 -104 -62 -197l113 -114l-86 -84l-113 115q-84 -61 -194 -62q-113 0 -197 62l-112 -115zM317 516 q0 -78 56.5 -134t134.5 -56t134 56t56 134t-56 134.5t-134 56.5t-134.5 -56.5t-56.5 -134.5z" />
<glyph unicode="&#xa5;" horiz-adv-x="1296" d="M-68 1169v60h695v-60q-144 0 -144 -69q0 -34 35 -86l230 -346l229 346q40 59 40 94q0 15 -7 26q-25 36 -144 35v60h496v-60q-121 0 -173 -35.5t-122 -144.5l-266 -401h223v-117h-250v-86h250v-115h-250q2 -135 37 -173t158 -38v-59h-639v59q121 0 157.5 38t38.5 173h-274 v115h274v86h-274v117h244l-267 401q-72 109 -130 144.5t-167 35.5z" />
<glyph unicode="&#xa6;" horiz-adv-x="432" d="M170 0v614h92v-614h-92zM170 836v614h92v-614h-92z" />
<glyph unicode="&#xa7;" horiz-adv-x="815" d="M127 -35v299h59q0 -74 77 -143.5t173 -69.5q47 0 77 30t30 69q0 74 -131 143l-115 61q-76 41 -115 103.5t-39 122.5q0 80 44 142t110 93q-76 41 -115 103.5t-39 121.5q0 106 76 165t166 59q41 0 81 -8.5t63.5 -16.5t43 -12t26.5 4t7 33h60v-238h-60q0 61 -60.5 108.5 t-127.5 47.5q-41 0 -71 -28t-30 -60.5t33 -64.5t109 -73l100 -55q158 -100 158 -227q0 -78 -41 -142.5t-105 -101.5q145 -96 146 -217q0 -115 -85 -181.5t-194 -66.5q-45 0 -91 14.5t-71.5 27.5t-48 20.5t-32 -7t-9.5 -55.5h-59zM317 651q0 -80 142 -155l18 -11 q66 23 66 107q0 92 -131 162q-41 -2 -68 -31t-27 -72z" />
<glyph unicode="&#xa8;" horiz-adv-x="757" d="M41 1298q0 45 30.5 75t73.5 30t74 -30t31 -75q0 -43 -31 -73.5t-74 -30.5t-73.5 30.5t-30.5 73.5zM449 1298q0 45 30.5 75t73.5 30t73.5 -30t30.5 -75q0 -43 -30.5 -73.5t-73.5 -30.5t-73.5 30.5t-30.5 73.5z" />
<glyph unicode="&#xa9;" horiz-adv-x="1398" d="M51 614.5q0 268.5 190.5 459t459 190.5t458 -190.5t189.5 -459t-189.5 -459t-458 -190.5t-459 190.5t-190.5 459zM145 614.5q0 -229.5 163 -392.5t392.5 -163t392 163t162.5 392.5t-162.5 392t-392 162.5t-392.5 -162.5t-163 -392zM334 614q0 158 109.5 272.5 t263.5 114.5q59 0 127.5 -31.5t107.5 -76.5q20 25 29 82h47v-289h-49q-47 238 -215 238q-100 0 -152.5 -87t-52.5 -223q0 -137 51 -223t154 -86q168 0 215 240h49v-291h-47q-8 57 -29 82q-39 -45 -107.5 -77t-127.5 -32q-154 0 -263.5 113.5t-109.5 273.5z" />
<glyph unicode="&#xaa;" horiz-adv-x="919" d="M100 721q0 117 112 180.5t320 95.5v2q0 102 -30.5 143.5t-95.5 41.5q-37 0 -71 -20.5t-34 -55.5q0 -37 -22.5 -60.5t-57.5 -23.5q-31 0 -52.5 23.5t-21.5 60.5q0 70 85 113t198 43q162 0 233.5 -62.5t71.5 -202.5v-264q0 -74 43 -73q29 0 58 24l28 -53q-98 -72 -182 -72 q-129 0 -150 111q-88 -66 -135 -89.5t-110 -23.5q-76 0 -131.5 44t-55.5 118zM293 743q0 -76 78 -75q68 0 161 86v166q-127 -35 -183 -72t-56 -105z" />
<glyph unicode="&#xab;" horiz-adv-x="1366" d="M154 549l692 444l31 -45l-359 -399l359 -399l-31 -48zM635 549l561 356l29 -49l-277 -307l277 -307l-29 -52z" />
<glyph unicode="&#xac;" horiz-adv-x="1167" d="M170 446v158h770v-368h-158v210h-612z" />
<glyph unicode="&#xad;" horiz-adv-x="937" d="M170 340v158h598v-158h-598z" />
<glyph unicode="&#xae;" horiz-adv-x="1398" d="M51 614.5q0 268.5 190.5 459t459 190.5t458 -190.5t189.5 -459t-189.5 -459t-458 -190.5t-459 190.5t-190.5 459zM145 614.5q0 -229.5 163 -392.5t392 -163q254 0 420 193h-200l-218 307h-32v-65q0 -123 24.5 -158t106.5 -35v-49h-443v49q82 0 106.5 35t24.5 158v233 q0 123 -24.5 158t-106.5 35v49h418q113 0 182.5 -58.5t69.5 -146.5q0 -141 -162 -195l115 -112q109 -109 186 -144q88 139 88 301q0 229 -162.5 392t-392 163t-392.5 -162.5t-163 -392zM670 635h53q47 0 80 36t33 93t-33 93t-80 36h-53v-258z" />
<glyph unicode="&#xaf;" horiz-adv-x="528" d="M45 1272v47h371v-47h-371z" />
<glyph unicode="&#xb0;" horiz-adv-x="819" d="M100 924q0 125 91.5 216t216.5 91q127 0 217 -90t90 -217t-90 -217.5t-217 -90.5t-217.5 90.5t-90.5 217.5zM248 923.5q0 -65.5 48 -113.5t113.5 -48t113.5 48t48 113.5t-48 113.5t-113.5 48t-113.5 -48t-48 -113.5z" />
<glyph unicode="&#xb1;" horiz-adv-x="937" d="M102 0v160h287v266h-287v158h287v286h160v-286h287v-158h-287v-266h287v-160h-734z" />
<glyph unicode="&#xb2;" horiz-adv-x="688" d="M71 1066q0 76 66 135q70 62 182 63q111 0 193 -56.5t82 -146.5q0 -123 -123 -213l-182 -127h325l-18 -133h-512v45l270 260q72 70 72 149q0 127 -129 127q-68 0 -99 -53q-13 -22 -13 -51q0 -41 26 -94l-55 -51q-85 58 -85 146z" />
<glyph unicode="&#xb3;" horiz-adv-x="688" d="M98 948l37 281h475v-47l-184 -178q78 -20 139.5 -90t61.5 -140q0 -92 -80 -156.5t-215 -64.5q-137 0 -207 84q-27 33 -27 56q0 17 15 28q13 10 37 10q20 0 34.5 -16.5t25.5 -37t43 -36.5t79 -16q63 0 94 43t31 106q0 51 -33 86t-84 47q-16 -20 -33 -47q-21 -35 -46 -35 q-9 0 -17 4q-33 14 -19 50l15 20l157 162h-114q-111 0 -129 -76l-11 -37h-45z" />
<glyph unicode="&#xb4;" horiz-adv-x="464" d="M-39 1151l248 231q68 61 117 62q35 0 55 -24.5t20 -51.5q0 -49 -61 -82l-367 -153z" />
<glyph unicode="&#xb5;" horiz-adv-x="1140" d="M8 -289q102 0 132 43t30 197v434q0 154 -29.5 196t-132.5 42v59h393v-383q0 -219 148 -219q70 0 130 54t60 149v102q0 152 -29.5 195t-131.5 43v59h391v-367q0 -152 29.5 -194.5t134.5 -42.5v-62l-359 -51q-20 39 -31 119q-94 -119 -256 -119q-41 0 -86 10v-24 q0 -154 30 -197t132 -43v-59h-555v59z" />
<glyph unicode="&#xb6;" horiz-adv-x="1153" d="M102 881q0 143 102.5 245.5t246.5 102.5h581v-60q-127 0 -161.5 -43t-34.5 -196v-979q0 -154 34.5 -197t161.5 -43v-59h-321v1470h-172v-1470h-322v59q127 0 162 43t35 197v586q-131 14 -221.5 112.5t-90.5 231.5z" />
<glyph unicode="&#xb7;" horiz-adv-x="579" d="M160 477q0 53 38 93t91 40t92 -40t39 -93t-39 -92t-92 -39t-91 39t-38 92z" />
<glyph unicode="&#xb8;" horiz-adv-x="446" d="M33 -154l289 287h118l-198 -203q84 -4 153.5 -57t69.5 -152q0 -68 -47 -122t-119 -83.5t-125 -45t-98 -21.5v74q227 72 227 198q0 66 -86 93q-40 12 -82 12q-49 0 -102 -16v36z" />
<glyph unicode="&#xb9;" horiz-adv-x="688" d="M111 1159v55l333 48v-447q0 -102 20.5 -133t92.5 -31v-55h-420v55q70 0 90.5 31t20.5 133v191q0 98 -29 128q-25 26 -90 26q-8 -1 -18 -1z" />
<glyph unicode="&#xba;" horiz-adv-x="1030" d="M123 907q0 145 115.5 251t277.5 106t276.5 -105.5t114.5 -251.5q0 -147 -114.5 -252.5t-276.5 -105.5t-277.5 105.5t-115.5 252.5zM362 907q0 -117 39 -191.5t115 -74.5t115 75t39 191q0 115 -40 191t-114 76q-76 0 -115 -76t-39 -191z" />
<glyph unicode="&#xbb;" horiz-adv-x="1366" d="M139 242l277 307l-277 307l31 49l561 -356l-561 -359zM487 150l359 399l-359 399l33 45l692 -444l-692 -447z" />
<glyph unicode="&#xbc;" horiz-adv-x="1546" d="M111 1159v55l333 48v-447q0 -102 20.5 -133t92.5 -31v-55h-420v55q70 0 90.5 31t20.5 133v191q0 98 -29 128q-25 26 -90 26q-8 -1 -18 -1zM336 6l756 1264l82 -45l-758 -1262zM817 190v52l400 452h71v-420q45 2 68.5 23.5t40.5 83.5l8 35h59l-12 -226h-164 q0 -80 21.5 -104.5t95.5 -24.5v-61h-424v61q76 0 97.5 25t21.5 104h-283zM944 274h156v177z" />
<glyph unicode="&#xbd;" horiz-adv-x="1546" d="M111 1159v55l333 48v-447q0 -102 20.5 -133t92.5 -31v-55h-420v55q70 0 90.5 31t20.5 133v191q0 98 -29 128q-25 26 -90 26q-8 -1 -18 -1zM336 6l756 1264l82 -45l-758 -1262zM907 480q0 76 66 134q70 61 182 62q111 0 193 -55.5t82 -147.5q0 -127 -123 -211l-183 -129 h326l-18 -133h-512v47l272 258q72 70 72 152q0 125 -131 125q-68 0 -100 -53q-13 -22 -13 -50q0 -40 27 -94l-56 -51q-84 58 -84 146z" />
<glyph unicode="&#xbe;" horiz-adv-x="1546" d="M98 948l37 281h475v-47l-184 -178q78 -20 139.5 -90t61.5 -140q0 -92 -80 -156.5t-215 -64.5q-137 0 -207 84q-27 33 -27 56q0 17 15 28q13 10 37 10q20 0 34.5 -16.5t25.5 -37t43 -36.5t79 -16q63 0 94 43t31 106q0 51 -33 86t-84 47q-16 -20 -33 -47q-21 -35 -46 -35 q-9 0 -17 4q-33 14 -19 50l15 20l157 162h-114q-111 0 -129 -76l-11 -37h-45zM362 6l756 1264l80 -45l-756 -1262zM817 190v52l400 452h71v-420q45 2 68.5 23.5t40.5 83.5l8 35h59l-12 -226h-164q0 -80 21.5 -104.5t95.5 -24.5v-61h-424v61q76 0 97.5 25t21.5 104h-283z M944 274h156v177z" />
<glyph unicode="&#xbf;" horiz-adv-x="1050" d="M156 -18q0 184 127 294.5t331 135.5v110h91v-356q-174 0 -285 -65.5t-111 -178.5q0 -88 86 -155.5t217 -67.5q84 0 136.5 30.5t52.5 61.5q0 47 -70 47q-37 0 -63.5 25.5t-26.5 60.5q0 51 44 79t87 28q66 0 121 -43t55 -133q0 -106 -106.5 -172t-227.5 -66 q-207 0 -332.5 115t-125.5 250zM545 782q0 49 32.5 83t81.5 34q47 0 82 -35t35 -82q0 -49 -34.5 -83.5t-82.5 -34.5q-49 0 -81.5 34.5t-32.5 83.5z" />
<glyph unicode="&#xc0;" d="M-78 0v59q106 0 155.5 36t96.5 145l444 1024h44l446 -1024q47 -109 91 -145t159 -36v-59h-672v59q131 0 163 37q14 16 14 41q0 32 -23 78l-86 195h-406l-84 -195q-21 -45 -21 -76q0 -27 16 -44q34 -36 159 -36v-59h-496zM330 1614q0 29 20.5 52.5t55.5 23.5q51 0 116 -62 l250 -231l-14 -19l-367 156q-61 33 -61 80zM389 502h326l-164 375z" />
<glyph unicode="&#xc1;" d="M-78 0v59q106 0 155.5 36t96.5 145l444 1024h44l446 -1024q47 -109 91 -145t159 -36v-59h-672v59q131 0 163 37q14 16 14 41q0 32 -23 78l-86 195h-406l-84 -195q-21 -45 -21 -76q0 -27 16 -44q34 -36 159 -36v-59h-496zM389 502h326l-164 375zM551 1397l248 231 q68 61 116 62q35 0 55.5 -25t20.5 -51q0 -49 -61 -82l-367 -154z" />
<glyph unicode="&#xc2;" d="M-78 0v59q106 0 155.5 36t96.5 145l444 1024h44l446 -1024q47 -109 91 -145t159 -36v-59h-672v59q131 0 163 37q14 16 14 41q0 32 -23 78l-86 195h-406l-84 -195q-21 -45 -21 -76q0 -27 16 -44q34 -36 159 -36v-59h-496zM350 1411l293 318l293 -318l-31 -29l-262 170 l-262 -170zM389 502h326l-164 375z" />
<glyph unicode="&#xc3;" d="M-78 0v59q106 0 155.5 36t96.5 145l444 1024h44l446 -1024q47 -109 91 -145t159 -36v-59h-672v59q131 0 163 37q14 16 14 41q0 32 -23 78l-86 195h-406l-84 -195q-21 -45 -21 -76q0 -27 16 -44q34 -36 159 -36v-59h-496zM322 1393q0 104 46 171.5t113 67.5 q49 0 156.5 -67.5t153.5 -67.5q78 0 104 117h41q0 -115 -46 -179.5t-124 -64.5q-45 0 -155.5 67.5t-145.5 67.5q-33 0 -62.5 -32.5t-42.5 -79.5h-38zM389 502h326l-164 375z" />
<glyph unicode="&#xc4;" d="M-78 0v59q106 0 155.5 36t96.5 145l444 1024h44l446 -1024q47 -109 91 -145t159 -36v-59h-672v59q131 0 163 37q14 16 14 41q0 32 -23 78l-86 195h-406l-84 -195q-21 -45 -21 -76q0 -27 16 -44q34 -36 159 -36v-59h-496zM326 1485q0 45 30.5 74.5t73.5 29.5t74 -29.5 t31 -74.5q0 -43 -31 -74t-74 -31t-73.5 31t-30.5 74zM389 502h326l-164 375zM733 1485q0 45 31 74.5t74 29.5t73.5 -29.5t30.5 -74.5q0 -43 -30.5 -74t-73.5 -31t-74 31t-31 74z" />
<glyph unicode="&#xc5;" d="M-78 0v59q106 0 155.5 36t96.5 145l444 1024h44l446 -1024q47 -109 91 -145t159 -36v-59h-672v59q131 0 163 37q14 16 14 41q0 32 -23 78l-86 195h-406l-84 -195q-21 -45 -21 -76q0 -27 16 -44q34 -36 159 -36v-59h-496zM389 502h326l-164 375zM428 1585q0 84 60.5 144.5 t144.5 60.5t143.5 -60.5t59.5 -144.5t-59.5 -143.5t-143.5 -59.5t-144.5 59.5t-60.5 143.5zM539 1585q0 -39 27.5 -65.5t66.5 -26.5t65.5 26.5t26.5 65.5t-26.5 66.5t-65.5 27.5t-66.5 -27.5t-27.5 -66.5z" />
<glyph unicode="&#xc6;" horiz-adv-x="1675" d="M-111 0v59q117 0 172.5 31t106.5 131l520 1008h803l16 -289h-59l-10 41q-25 92 -66 124t-172 32h-211v-551h10q154 0 196 33.5t42 162.5h59v-485h-59q0 127 -42 162t-196 35h-10v-162q0 -154 35 -197t162 -43h82q92 0 140 18.5t65.5 47t31.5 90.5l11 41h59l-16 -289 h-1020v59q127 0 160.5 43t33.5 197v195h-323l-152 -295q-27 -52 -27 -83q0 -19 11 -29q27 -28 143 -28v-59h-496zM457 586h276v534z" />
<glyph unicode="&#xc7;" horiz-adv-x="1417" d="M145 614q0 268 184.5 459t444.5 191q217 0 381 -174q31 25 53 116h58v-450h-60q-41 197 -154.5 303t-269.5 106q-100 0 -173.5 -49t-112.5 -132t-56.5 -175t-17.5 -194.5t17.5 -194.5t56.5 -175t112.5 -132.5t173.5 -49.5q154 0 268.5 108t155.5 302h60v-450h-58 q-25 96 -53 116q-168 -172 -379 -174l-98 -100q84 -4 153.5 -56.5t69.5 -152.5q0 -68 -47 -122t-118.5 -84t-125 -45t-98.5 -21v73q227 70 227 199q0 68 -86 94q-39 12 -79 12q-50 0 -105 -18v37l195 194q-221 41 -370 221t-149 418z" />
<glyph unicode="&#xc8;" horiz-adv-x="1312" d="M78 0v59q127 0 160.5 43t33.5 197v631q0 154 -33.5 196.5t-160.5 42.5v60h1055l16 -289h-59l-11 41q-25 92 -65.5 124t-171.5 32h-314v-441h113q154 0 196 35t42 162h59v-485h-59q0 129 -42 162.5t-196 33.5h-113v-272q0 -154 35 -197t162 -43h184q92 0 140.5 18.5t66 47 t31.5 90.5l10 41h60l-17 -289h-1122zM367 1614q0 29 20.5 52.5t54.5 23.5q51 0 117 -62l250 -231l-14 -19l-367 156q-61 33 -61 80z" />
<glyph unicode="&#xc9;" horiz-adv-x="1312" d="M78 0v59q127 0 160.5 43t33.5 197v631q0 154 -33.5 196.5t-160.5 42.5v60h1055l16 -289h-59l-11 41q-25 92 -65.5 124t-171.5 32h-314v-441h113q154 0 196 35t42 162h59v-485h-59q0 129 -42 162.5t-196 33.5h-113v-272q0 -154 35 -197t162 -43h184q92 0 140.5 18.5t66 47 t31.5 90.5l10 41h60l-17 -289h-1122zM545 1399l248 231q68 61 116 62q35 0 55.5 -25t20.5 -51q0 -49 -61 -82l-367 -154z" />
<glyph unicode="&#xca;" horiz-adv-x="1312" d="M78 0v59q127 0 160.5 43t33.5 197v631q0 154 -33.5 196.5t-160.5 42.5v60h1055l16 -289h-59l-11 41q-25 92 -65.5 124t-171.5 32h-314v-441h113q154 0 196 35t42 162h59v-485h-59q0 129 -42 162.5t-196 33.5h-113v-272q0 -154 35 -197t162 -43h184q92 0 140.5 18.5t66 47 t31.5 90.5l10 41h60l-17 -289h-1122zM365 1411l292 318l293 -318l-30 -29l-263 170l-262 -170z" />
<glyph unicode="&#xcb;" horiz-adv-x="1312" d="M78 0v59q127 0 160.5 43t33.5 197v631q0 154 -33.5 196.5t-160.5 42.5v60h1055l16 -289h-59l-11 41q-25 92 -65.5 124t-171.5 32h-314v-441h113q154 0 196 35t42 162h59v-485h-59q0 129 -42 162.5t-196 33.5h-113v-272q0 -154 35 -197t162 -43h184q92 0 140.5 18.5t66 47 t31.5 90.5l10 41h60l-17 -289h-1122zM342 1485q0 45 30.5 74.5t73.5 29.5t74 -29.5t31 -74.5q0 -43 -31 -74t-74 -31t-73.5 31t-30.5 74zM750 1485q0 45 30.5 74.5t73.5 29.5t73.5 -29.5t30.5 -74.5q0 -43 -30.5 -74t-73.5 -31t-73.5 31t-30.5 74z" />
<glyph unicode="&#xcc;" horiz-adv-x="768" d="M76 1614q0 29 20.5 52.5t55.5 23.5q51 0 116 -62l250 -231l-14 -19l-367 156q-61 33 -61 80zM78 0v59q127 0 160.5 43t33.5 197v631q0 154 -33.5 196.5t-160.5 42.5v60h647v-60q-127 0 -162 -43t-35 -196v-631q0 -154 35 -197t162 -43v-59h-647z" />
<glyph unicode="&#xcd;" horiz-adv-x="768" d="M78 0v59q127 0 160.5 43t33.5 197v631q0 154 -33.5 196.5t-160.5 42.5v60h647v-60q-127 0 -162 -43t-35 -196v-631q0 -154 35 -197t162 -43v-59h-647zM270 1397l248 231q68 61 117 62q35 0 55.5 -25t20.5 -51q0 -49 -62 -82l-366 -154z" />
<glyph unicode="&#xce;" horiz-adv-x="768" d="M78 0v59q127 0 160.5 43t33.5 197v631q0 154 -33.5 196.5t-160.5 42.5v60h647v-60q-127 0 -162 -43t-35 -196v-631q0 -154 35 -197t162 -43v-59h-647zM82 1411l293 318l293 -318l-31 -29l-262 170l-262 -170z" />
<glyph unicode="&#xcf;" horiz-adv-x="768" d="M72 1485q0 45 30.5 74.5t73.5 29.5t74 -29.5t31 -74.5q0 -43 -31 -74t-74 -31t-73.5 31t-30.5 74zM78 0v59q127 0 160.5 43t33.5 197v631q0 154 -33.5 196.5t-160.5 42.5v60h647v-60q-127 0 -162 -43t-35 -196v-631q0 -154 35 -197t162 -43v-59h-647zM479 1485 q0 45 31 74.5t74 29.5t73.5 -29.5t30.5 -74.5q0 -43 -30.5 -74t-73.5 -31t-74 31t-31 74z" />
<glyph unicode="&#xd0;" horiz-adv-x="1460" d="M78 0v59q127 0 160.5 43t33.5 197v252h-186v125h186v254q0 154 -33.5 196.5t-160.5 42.5v60h676q340 0 511 -172t171 -442.5t-171 -442.5t-511 -172h-676zM528 676h189v-125h-189v-227q0 -150 35 -191t162 -41h20q96 0 169 33t116 84t69.5 122.5t36 139.5t9.5 143.5 t-9.5 143t-36 139.5t-69.5 123t-115.5 84t-169.5 33h-217v-461z" />
<glyph unicode="&#xd1;" horiz-adv-x="1519" d="M78 0v59q127 0 160.5 43t33.5 197v631q0 154 -33.5 196.5t-160.5 42.5v60h409l684 -815v516q0 154 -34.5 196.5t-161.5 42.5v60h485v-60q-129 0 -162.5 -42t-33.5 -197v-965h-52l-847 1012v-678q0 -154 34.5 -197t161.5 -43v-59h-483zM432 1382q0 104 46 172t114 68 q49 0 156.5 -67.5t152.5 -67.5q78 0 105 117h41q0 -115 -46.5 -179.5t-123.5 -64.5q-45 0 -156 67.5t-146 67.5q-33 0 -62.5 -32.5t-41.5 -80.5h-39z" />
<glyph unicode="&#xd2;" horiz-adv-x="1654" d="M145 614.5q0 268.5 201 459t481 190.5q283 0 483.5 -190.5t200.5 -459t-200.5 -459t-483.5 -190.5q-281 0 -481.5 190.5t-200.5 459zM420 614.5q0 -133.5 40 -254t136 -209t231 -88.5q137 0 233.5 88.5t135.5 209t39 254t-39 254t-135 208.5t-234 88q-135 0 -231 -88 t-136 -208.5t-40 -254zM473 1614q0 29 20.5 52.5t55.5 23.5q51 0 117 -62l249 -231l-14 -19l-366 156q-62 33 -62 80z" />
<glyph unicode="&#xd3;" horiz-adv-x="1654" d="M145 614.5q0 268.5 201 459t481 190.5q283 0 483.5 -190.5t200.5 -459t-200.5 -459t-483.5 -190.5q-281 0 -481.5 190.5t-200.5 459zM420 614.5q0 -133.5 40 -254t136 -209t231 -88.5q137 0 233.5 88.5t135.5 209t39 254t-39 254t-135 208.5t-234 88q-135 0 -231 -88 t-136 -208.5t-40 -254zM739 1397l248 231q68 61 117 62q35 0 55.5 -25t20.5 -51q0 -49 -62 -82l-366 -154z" />
<glyph unicode="&#xd4;" horiz-adv-x="1654" d="M145 614.5q0 268.5 201 459t481 190.5q283 0 483.5 -190.5t200.5 -459t-200.5 -459t-483.5 -190.5q-281 0 -481.5 190.5t-200.5 459zM420 614.5q0 -133.5 40 -254t136 -209t231 -88.5q137 0 233.5 88.5t135.5 209t39 254t-39 254t-135 208.5t-234 88q-135 0 -231 -88 t-136 -208.5t-40 -254zM543 1407l293 317l292 -317l-30 -29l-262 170l-263 -170z" />
<glyph unicode="&#xd5;" horiz-adv-x="1654" d="M145 614.5q0 268.5 201 459t481 190.5q283 0 483.5 -190.5t200.5 -459t-200.5 -459t-483.5 -190.5q-281 0 -481.5 190.5t-200.5 459zM420 614.5q0 -133.5 40 -254t136 -209t231 -88.5q137 0 233.5 88.5t135.5 209t39 254t-39 254t-135 208.5t-234 88q-135 0 -231 -88 t-136 -208.5t-40 -254zM498 1393q0 104 46 171.5t113 67.5q49 0 157 -67.5t153 -67.5q78 0 104 117h41q0 -115 -46 -179.5t-124 -64.5q-45 0 -155.5 67.5t-145.5 67.5q-33 0 -62.5 -32.5t-41.5 -79.5h-39z" />
<glyph unicode="&#xd6;" horiz-adv-x="1654" d="M145 614.5q0 268.5 201 459t481 190.5q283 0 483.5 -190.5t200.5 -459t-200.5 -459t-483.5 -190.5q-281 0 -481.5 190.5t-200.5 459zM420 614.5q0 -133.5 40 -254t136 -209t231 -88.5q137 0 233.5 88.5t135.5 209t39 254t-39 254t-135 208.5t-234 88q-135 0 -231 -88 t-136 -208.5t-40 -254zM528 1485q0 45 31 74.5t74 29.5t73.5 -29.5t30.5 -74.5q0 -43 -30.5 -74t-73.5 -31t-74 31t-31 74zM936 1485q0 45 30.5 74.5t73.5 29.5t74 -29.5t31 -74.5q0 -43 -31 -74t-74 -31t-73.5 31t-30.5 74z" />
<glyph unicode="&#xd7;" horiz-adv-x="0" />
<glyph unicode="&#xd8;" horiz-adv-x="1654" d="M145 614q0 268 201 459t481 191q152 0 283 -60l76 131l108 -55l-80 -133q137 -90 217 -230.5t80 -302.5q0 -268 -200.5 -458.5t-483.5 -190.5q-145 0 -278 58l-74 -127l-108 53l77 129q-137 90 -218 231t-81 305zM420 614q0 -229 108 -391l86 146l166 280l187 318l75 125 q-86 74 -215 73q-135 0 -231 -88t-136 -209t-40 -254zM614 133q92 -70 213 -70q137 0 233.5 88.5t135.5 209t39 253.5q0 236 -107 385l-129 -217l-256 -432z" />
<glyph unicode="&#xd9;" horiz-adv-x="1533" d="M63 1169v60h650v-60q-129 0 -163 -42t-34 -197v-451q0 -190 89 -288.5t229 -98.5q137 0 219 98.5t82 288.5v451q0 156 -34 197.5t-163 41.5v60h502v-60q-127 0 -161 -43t-34 -196v-473q0 -231 -140 -361.5t-353 -130.5t-352.5 129t-139.5 363v473q0 154 -35 196.5 t-162 42.5zM428 1614q0 29 20.5 52.5t55.5 23.5q51 0 117 -62l249 -231l-14 -19l-367 156q-61 33 -61 80z" />
<glyph unicode="&#xda;" horiz-adv-x="1533" d="M63 1169v60h650v-60q-129 0 -163 -42t-34 -197v-451q0 -190 89 -288.5t229 -98.5q137 0 219 98.5t82 288.5v451q0 156 -34 197.5t-163 41.5v60h502v-60q-127 0 -161 -43t-34 -196v-473q0 -231 -140 -361.5t-353 -130.5t-352.5 129t-139.5 363v473q0 154 -35 196.5 t-162 42.5zM715 1397l248 231q68 61 116 62q35 0 55.5 -25t20.5 -51q0 -49 -61 -82l-367 -154z" />
<glyph unicode="&#xdb;" horiz-adv-x="1533" d="M63 1169v60h650v-60q-129 0 -163 -42t-34 -197v-451q0 -190 89 -288.5t229 -98.5q137 0 219 98.5t82 288.5v451q0 156 -34 197.5t-163 41.5v60h502v-60q-127 0 -161 -43t-34 -196v-473q0 -231 -140 -361.5t-353 -130.5t-352.5 129t-139.5 363v473q0 154 -35 196.5 t-162 42.5zM537 1411l292 318l293 -318l-30 -29l-263 170l-262 -170z" />
<glyph unicode="&#xdc;" horiz-adv-x="1533" d="M63 1169v60h650v-60q-129 0 -163 -42t-34 -197v-451q0 -190 89 -288.5t229 -98.5q137 0 219 98.5t82 288.5v451q0 156 -34 197.5t-163 41.5v60h502v-60q-127 0 -161 -43t-34 -196v-473q0 -231 -140 -361.5t-353 -130.5t-352.5 129t-139.5 363v473q0 154 -35 196.5 t-162 42.5zM500 1487q0 45 30.5 74.5t73.5 29.5t74 -29.5t31 -74.5q0 -43 -31 -74t-74 -31t-73.5 31t-30.5 74zM907 1487q0 45 31 74.5t74 29.5t73.5 -29.5t30.5 -74.5q0 -43 -30.5 -74t-73.5 -31t-74 31t-31 74z" />
<glyph unicode="&#xdd;" horiz-adv-x="1296" d="M-68 1169v60h695v-60q-144 0 -144 -69q0 -34 35 -86l230 -346l229 346q40 59 40 94q0 15 -7 26q-25 36 -144 35v60h496v-60q-121 0 -173 -35.5t-122 -144.5l-293 -442v-248q0 -154 34 -197t161 -43v-59h-639v59q127 0 161.5 43t34.5 197v242l-297 448q-72 109 -130 144.5 t-167 35.5zM705 1399l247 231q68 61 117 62q35 0 55.5 -25t20.5 -51q0 -49 -62 -82l-366 -154z" />
<glyph unicode="&#xde;" horiz-adv-x="1044" d="M8 -453q102 0 132 43t30 197v1126q0 154 -29.5 197t-132.5 43v59l393 52v-607q78 59 168 60q170 0 271.5 -107.5t101.5 -267.5t-102.5 -268.5t-270.5 -108.5q-96 0 -168 62v-240q0 -154 30 -197t132 -43v-59h-555v59zM401 242q0 -76 41 -128.5t97 -52.5q76 0 114.5 79 t38.5 202t-39 201t-114 78q-55 0 -96.5 -51.5t-41.5 -129.5v-198z" />
<glyph unicode="&#xdf;" horiz-adv-x="1214" d="M63 0v59q102 0 132 43t30 197v324h-162v59q98 0 130 38t32 128q0 416 365 416q131 0 200.5 -69t69.5 -165q0 -72 -46 -174t-46 -180q0 -109 141 -187l101 -53q158 -88 157 -231q0 -115 -84 -177.5t-194 -62.5q-45 0 -91 14.5t-72 27.5t-48.5 20.5t-31.5 -7t-9 -55.5h-59 v299h59q0 -74 77 -143.5t173 -69.5q47 0 76.5 25.5t29.5 62.5q0 72 -131 144l-114 61q-154 80 -154 246q0 82 73.5 227.5t73.5 212.5q0 150 -139 150q-145 0 -145 -244v-936h-394z" />
<glyph unicode="&#xe0;" horiz-adv-x="919" d="M80 145q0 123 117.5 190.5t337.5 100.5v2q0 109 -33 152t-101 43q-41 0 -75.5 -21.5t-34.5 -58.5q0 -41 -23.5 -64.5t-58.5 -23.5t-57.5 23.5t-22.5 64.5q0 74 89 119t208 45q170 0 247 -66.5t77 -212.5v-276q0 -78 45 -78q20 0 59 25l29 -56q-100 -76 -191 -76 q-135 0 -157 119q-92 -72 -142.5 -97.5t-116.5 -25.5q-78 0 -137 47t-59 125zM137 1069q0 29 20.5 52.5t55.5 23.5q51 0 117 -62l250 -231l-15 -18l-366 155q-62 33 -62 80zM283 170q0 -82 82 -82q66 0 170 92v174q-131 -35 -191.5 -73.5t-60.5 -110.5z" />
<glyph unicode="&#xe1;" horiz-adv-x="919" d="M80 145q0 123 117.5 190.5t337.5 100.5v2q0 109 -33 152t-101 43q-41 0 -75.5 -21.5t-34.5 -58.5q0 -41 -23.5 -64.5t-58.5 -23.5t-57.5 23.5t-22.5 64.5q0 74 89 119t208 45q170 0 247 -66.5t77 -212.5v-276q0 -78 45 -78q20 0 59 25l29 -56q-100 -76 -191 -76 q-135 0 -157 119q-92 -72 -142.5 -97.5t-116.5 -25.5q-78 0 -137 47t-59 125zM264 852l248 231q68 61 117 62q35 0 55.5 -24.5t20.5 -51.5q0 -49 -62 -82l-367 -153zM283 170q0 -82 82 -82q66 0 170 92v174q-131 -35 -191.5 -73.5t-60.5 -110.5z" />
<glyph unicode="&#xe2;" horiz-adv-x="919" d="M80 145q0 123 117.5 190.5t337.5 100.5v2q0 109 -33 152t-101 43q-41 0 -75.5 -21.5t-34.5 -58.5q0 -41 -23.5 -64.5t-58.5 -23.5t-57.5 23.5t-22.5 64.5q0 74 89 119t208 45q170 0 247 -66.5t77 -212.5v-276q0 -78 45 -78q20 0 59 25l29 -56q-100 -76 -191 -76 q-135 0 -157 119q-92 -72 -142.5 -97.5t-116.5 -25.5q-78 0 -137 47t-59 125zM143 866l293 318l293 -318l-31 -28l-262 170l-262 -170zM283 170q0 -82 82 -82q66 0 170 92v174q-131 -35 -191.5 -73.5t-60.5 -110.5z" />
<glyph unicode="&#xe3;" horiz-adv-x="919" d="M80 145q0 123 117.5 190.5t337.5 100.5v2q0 109 -33 152t-101 43q-41 0 -75.5 -21.5t-34.5 -58.5q0 -41 -23.5 -64.5t-58.5 -23.5t-57.5 23.5t-22.5 64.5q0 74 89 119t208 45q170 0 247 -66.5t77 -212.5v-276q0 -78 45 -78q20 0 59 25l29 -56q-100 -76 -191 -76 q-135 0 -157 119q-92 -72 -142.5 -97.5t-116.5 -25.5q-78 0 -137 47t-59 125zM125 838q0 104 46 171.5t114 67.5q49 0 156.5 -67.5t152.5 -67.5q78 0 104 117h41q0 -115 -46 -179.5t-124 -64.5q-45 0 -155.5 67.5t-145.5 67.5q-33 0 -62.5 -32.5t-41.5 -79.5h-39zM283 170 q0 -82 82 -82q66 0 170 92v174q-131 -35 -191.5 -73.5t-60.5 -110.5z" />
<glyph unicode="&#xe4;" horiz-adv-x="919" d="M80 145q0 123 117.5 190.5t337.5 100.5v2q0 109 -33 152t-101 43q-41 0 -75.5 -21.5t-34.5 -58.5q0 -41 -23.5 -64.5t-58.5 -23.5t-57.5 23.5t-22.5 64.5q0 74 89 119t208 45q170 0 247 -66.5t77 -212.5v-276q0 -78 45 -78q20 0 59 25l29 -56q-100 -76 -191 -76 q-135 0 -157 119q-92 -72 -142.5 -97.5t-116.5 -25.5q-78 0 -137 47t-59 125zM137 940q0 45 31 74.5t74 29.5t73.5 -29.5t30.5 -74.5q0 -43 -30.5 -73.5t-73.5 -30.5t-74 30.5t-31 73.5zM283 170q0 -82 82 -82q66 0 170 92v174q-131 -35 -191.5 -73.5t-60.5 -110.5zM545 940 q0 45 30.5 74.5t73.5 29.5t74 -29.5t31 -74.5q0 -43 -31 -73.5t-74 -30.5t-73.5 30.5t-30.5 73.5z" />
<glyph unicode="&#xe5;" horiz-adv-x="919" d="M80 145q0 123 117.5 190.5t337.5 100.5v2q0 109 -33 152t-101 43q-41 0 -75.5 -21.5t-34.5 -58.5q0 -41 -23.5 -64.5t-58.5 -23.5t-57.5 23.5t-22.5 64.5q0 74 89 119t208 45q170 0 247 -66.5t77 -212.5v-276q0 -78 45 -78q20 0 59 25l29 -56q-100 -76 -191 -76 q-135 0 -157 119q-92 -72 -142.5 -97.5t-116.5 -25.5q-78 0 -137 47t-59 125zM254 1036q0 84 60.5 144.5t144.5 60.5t143.5 -60.5t59.5 -144.5t-59.5 -143t-143.5 -59t-144.5 59t-60.5 143zM283 170q0 -82 82 -82q66 0 170 92v174q-131 -35 -191.5 -73.5t-60.5 -110.5z M365 1036q0 -39 27.5 -65.5t66.5 -26.5t65.5 26.5t26.5 65.5t-26.5 66.5t-65.5 27.5t-66.5 -27.5t-27.5 -66.5z" />
<glyph unicode="&#xe6;" horiz-adv-x="1290" d="M80 145q0 123 117.5 190.5t337.5 100.5v2q0 109 -33 152t-101 43q-41 0 -75.5 -21.5t-34.5 -58.5q0 -41 -23.5 -64.5t-58.5 -23.5t-57.5 23.5t-22.5 64.5q0 74 89 119t208 45q172 0 246 -66q104 66 229 66q160 0 246 -112q60 -78 60 -158q0 -34 -11 -68h-444 q-2 -25 -2 -47q0 -113 51 -179q61 -79 151 -79q145 0 242 86l37 -60q-55 -59 -141 -97t-172 -38q-229 0 -347 164q-170 -156 -295 -156q-78 0 -137 47t-59 125zM283 170q0 -82 82 -82q66 0 170 92v174q-131 -35 -191.5 -73.5t-60.5 -110.5zM764 469h274q0 7 1 14 q0 56 -30 94q-34 42 -98 41q-112 1 -147 -149z" />
<glyph unicode="&#xe7;" horiz-adv-x="845" d="M102 324q0 176 111 284.5t268 108.5q121 0 191.5 -51.5t70.5 -114.5q0 -31 -22.5 -58.5t-69.5 -27.5q-33 0 -56.5 24.5t-23.5 57.5q0 88 -73 88q-143 0 -144 -311q0 -123 54.5 -190.5t152.5 -67.5t207 94l37 -60q-129 -135 -307 -135h-17l-98 -100q84 -4 153.5 -56.5 t69.5 -152.5q0 -68 -47 -122t-118.5 -84t-125 -45t-98.5 -21v73q227 72 227 199q0 68 -86 94q-39 12 -79 12q-50 0 -105 -18v37l201 201q-123 35 -198 127t-75 215z" />
<glyph unicode="&#xe8;" horiz-adv-x="905" d="M102 342q0 160 116 267.5t280 107.5q160 0 245 -112q61 -79 62 -160q0 -33 -10 -66h-447q-1 -21 -1 -41q0 -118 51 -185q60 -79 151 -79q145 0 244 86l34 -60q-55 -59 -141 -97t-170 -38q-180 0 -297 109.5t-117 267.5zM188 1069q0 29 20.5 52.5t55.5 23.5q51 0 117 -62 l250 -231l-15 -18l-366 155q-62 33 -62 80zM362 469h273v14q0 56 -29 94q-33 42 -98 41q-111 1 -146 -149z" />
<glyph unicode="&#xe9;" horiz-adv-x="905" d="M102 342q0 160 116 267.5t280 107.5q160 0 245 -112q61 -79 62 -160q0 -33 -10 -66h-447q-1 -21 -1 -41q0 -118 51 -185q60 -79 151 -79q145 0 244 86l34 -60q-55 -59 -141 -97t-170 -38q-180 0 -297 109.5t-117 267.5zM322 852l247 231q68 61 117 62q35 0 55.5 -24.5 t20.5 -51.5q0 -49 -62 -82l-366 -153zM362 469h273v14q0 56 -29 94q-33 42 -98 41q-111 1 -146 -149z" />
<glyph unicode="&#xea;" horiz-adv-x="905" d="M102 342q0 160 116 267.5t280 107.5q160 0 245 -112q61 -79 62 -160q0 -33 -10 -66h-447q-1 -21 -1 -41q0 -118 51 -185q60 -79 151 -79q145 0 244 86l34 -60q-55 -59 -141 -97t-170 -38q-180 0 -297 109.5t-117 267.5zM178 866l293 318l293 -318l-31 -28l-262 170 l-262 -170zM362 469h273v14q0 56 -29 94q-33 42 -98 41q-111 1 -146 -149z" />
<glyph unicode="&#xeb;" horiz-adv-x="905" d="M102 342q0 160 116 267.5t280 107.5q160 0 245 -112q61 -79 62 -160q0 -33 -10 -66h-447q-1 -21 -1 -41q0 -118 51 -185q60 -79 151 -79q145 0 244 86l34 -60q-55 -59 -141 -97t-170 -38q-180 0 -297 109.5t-117 267.5zM164 940q0 45 30.5 74.5t73.5 29.5t74 -29.5 t31 -74.5q0 -43 -31 -73.5t-74 -30.5t-73.5 30.5t-30.5 73.5zM362 469h273v14q0 56 -29 94q-33 42 -98 41q-111 1 -146 -149zM571 940q0 45 31 74.5t74 29.5t73.5 -29.5t30.5 -74.5q0 -43 -30.5 -73.5t-73.5 -30.5t-74 30.5t-31 73.5z" />
<glyph unicode="&#xec;" horiz-adv-x="677" d="M33 1069q0 29 20.5 52.5t55.5 23.5q51 0 116 -62l250 -231l-14 -18l-367 155q-61 33 -61 80zM80 0v59q102 0 132 43t30 197v68q0 154 -30 196.5t-132 42.5v60l393 51v-418q0 -154 29.5 -197t132.5 -43v-59h-555z" />
<glyph unicode="&#xed;" horiz-adv-x="677" d="M80 0v59q102 0 132 43t30 197v68q0 154 -30 196.5t-132 42.5v60l393 51v-418q0 -154 29.5 -197t132.5 -43v-59h-555zM172 852l248 231q68 61 117 62q35 0 55 -24.5t20 -51.5q0 -49 -61 -82l-367 -153z" />
<glyph unicode="&#xee;" horiz-adv-x="677" d="M29 864l293 318l292 -318l-30 -28l-262 170l-263 -170zM80 0v59q102 0 132 43t30 197v68q0 154 -30 196.5t-132 42.5v60l393 51v-418q0 -154 29.5 -197t132.5 -43v-59h-555z" />
<glyph unicode="&#xef;" horiz-adv-x="677" d="M23 940q0 45 30.5 74.5t73.5 29.5t73.5 -29.5t30.5 -74.5q0 -43 -30.5 -73.5t-73.5 -30.5t-73.5 30.5t-30.5 73.5zM80 0v59q102 0 132 43t30 197v68q0 154 -30 196.5t-132 42.5v60l393 51v-418q0 -154 29.5 -197t132.5 -43v-59h-555zM430 940q0 45 31 74.5t74 29.5 t73.5 -29.5t30.5 -74.5q0 -43 -30.5 -73.5t-73.5 -30.5t-74 30.5t-31 73.5z" />
<glyph unicode="&#xf0;" horiz-adv-x="1091" d="M113 350.5q0 157.5 129 270t301 112.5q113 0 176 -53q-5 215 -57 346l-242 -180l-55 76l249 188q-55 76 -147 76q-57 0 -103.5 -29t-65.5 -58.5t-48 -48t-55 2.5q-30 18 -30 44.5t30 61.5q70 86 213 107l61 4q133 0 244 -88l161 121l58 -76l-154 -115q86 -104 133 -254.5 t47 -312.5q0 -168 -44 -290t-114.5 -180.5t-138 -84t-135.5 -25.5q-170 0 -291.5 114t-121.5 271.5zM367 352q0 -287 159 -286q193 0 193 503q-43 66 -176 66q-176 0 -176 -283z" />
<glyph unicode="&#xf1;" horiz-adv-x="1212" d="M80 0v59q102 0 132 43t30 197v68q0 154 -30 196.5t-132 42.5v60l358 51q23 -43 29 -117q96 117 256 117q137 0 227 -87t90 -218v-113q0 -154 30 -197t134 -43v-59h-473v59q43 0 61.5 48.5t18.5 191.5v86q0 106 -34 161.5t-115 55.5q-70 0 -129.5 -54t-59.5 -149v-100 q0 -154 29.5 -197t132.5 -43v-59h-555zM299 858q0 104 46 172t114 68q49 0 156.5 -67.5t152.5 -67.5q78 0 104 116h41q0 -115 -46 -179t-124 -64q-45 0 -155.5 67.5t-145.5 67.5q-33 0 -62.5 -33t-41.5 -80h-39z" />
<glyph unicode="&#xf2;" horiz-adv-x="1030" d="M102 342q0 156 122 265.5t292 109.5t291 -109.5t121 -265.5t-121 -266.5t-291 -110.5t-292 110.5t-122 266.5zM180 1069q0 29 20.5 52.5t55.5 23.5q51 0 117 -62l250 -231l-15 -18l-366 155q-62 33 -62 80zM354 342q0 -123 41 -202t121 -79t121 79t41 202t-41 201 t-121 78t-121 -78t-41 -201z" />
<glyph unicode="&#xf3;" horiz-adv-x="1030" d="M102 342q0 156 122 265.5t292 109.5t291 -109.5t121 -265.5t-121 -266.5t-291 -110.5t-292 110.5t-122 266.5zM352 852l248 231q68 61 117 62q35 0 55.5 -24.5t20.5 -51.5q0 -49 -62 -82l-366 -153zM354 342q0 -123 41 -202t121 -79t121 79t41 202t-41 201t-121 78 t-121 -78t-41 -201z" />
<glyph unicode="&#xf4;" horiz-adv-x="1030" d="M102 342q0 156 122 265.5t292 109.5t291 -109.5t121 -265.5t-121 -266.5t-291 -110.5t-292 110.5t-122 266.5zM190 866l293 318l293 -318l-31 -28l-262 170l-262 -170zM354 342q0 -123 41 -202t121 -79t121 79t41 202t-41 201t-121 78t-121 -78t-41 -201z" />
<glyph unicode="&#xf5;" horiz-adv-x="1030" d="M102 342q0 156 122 265.5t292 109.5t291 -109.5t121 -265.5t-121 -266.5t-291 -110.5t-292 110.5t-122 266.5zM203 838q0 104 46 171.5t113 67.5q49 0 157 -67.5t153 -67.5q78 0 104 117h41q0 -115 -46 -179.5t-124 -64.5q-45 0 -155.5 67.5t-145.5 67.5 q-33 0 -62.5 -32.5t-41.5 -79.5h-39zM354 342q0 -123 41 -202t121 -79t121 79t41 202t-41 201t-121 78t-121 -78t-41 -201z" />
<glyph unicode="&#xf6;" horiz-adv-x="1030" d="M102 342q0 156 122 265.5t292 109.5t291 -109.5t121 -265.5t-121 -266.5t-291 -110.5t-292 110.5t-122 266.5zM207 940q0 45 30.5 74.5t73.5 29.5t74 -29.5t31 -74.5q0 -43 -31 -73.5t-74 -30.5t-73.5 30.5t-30.5 73.5zM354 342q0 -123 41 -202t121 -79t121 79t41 202 t-41 201t-121 78t-121 -78t-41 -201zM614 940q0 45 31 74.5t74 29.5t73.5 -29.5t30.5 -74.5q0 -43 -30.5 -73.5t-73.5 -30.5t-74 30.5t-31 73.5z" />
<glyph unicode="&#xf7;" horiz-adv-x="937" d="M137 375v157h666v-157h-666zM354 170q0 47 34 83t79 36q47 0 84 -36t37 -83t-37 -84t-84 -37q-45 0 -79 37t-34 84zM354 737q0 47 34 83t79 36q47 0 84 -36t37 -83t-37 -83t-84 -36q-45 0 -79 36t-34 83z" />
<glyph unicode="&#xf8;" horiz-adv-x="1030" d="M102 342q0 156 122 265.5t292 109.5q76 0 156 -27l53 88l82 -45l-53 -86q80 -51 127 -132t47 -173q0 -156 -121 -266.5t-291 -110.5q-84 0 -158 29l-55 -90l-82 45l53 88q-172 115 -172 305zM354 342q0 -80 19 -145l233 385q-37 39 -90 39q-80 0 -121 -78t-41 -201z M424 100q35 -39 92 -39q80 0 121 79t41 202q0 84 -19 145z" />
<glyph unicode="&#xf9;" horiz-adv-x="1140" d="M8 623v59h393v-383q0 -219 148 -219q70 0 130 54t60 149v102q0 152 -29.5 195t-131.5 43v59h391v-367q0 -152 29.5 -194.5t134.5 -42.5v-62l-359 -51q-20 39 -31 119q-94 -119 -256 -119q-137 0 -227 88t-90 219v113q0 154 -30 196t-132 42zM209 1067q0 29 20.5 52.5 t55.5 23.5q51 0 116 -62l250 -231l-14 -19l-367 156q-61 33 -61 80z" />
<glyph unicode="&#xfa;" horiz-adv-x="1140" d="M8 623v59h393v-383q0 -219 148 -219q70 0 130 54t60 149v102q0 152 -29.5 195t-131.5 43v59h391v-367q0 -152 29.5 -194.5t134.5 -42.5v-62l-359 -51q-20 39 -31 119q-94 -119 -256 -119q-137 0 -227 88t-90 219v113q0 154 -30 196t-132 42zM383 850l248 231 q68 61 117 62q35 0 55 -24.5t20 -51.5q0 -49 -61 -82l-367 -154z" />
<glyph unicode="&#xfb;" horiz-adv-x="1140" d="M8 623v59h393v-383q0 -219 148 -219q70 0 130 54t60 149v102q0 152 -29.5 195t-131.5 43v59h391v-367q0 -152 29.5 -194.5t134.5 -42.5v-62l-359 -51q-20 39 -31 119q-94 -119 -256 -119q-137 0 -227 88t-90 219v113q0 154 -30 196t-132 42zM225 866l293 318l293 -318 l-31 -28l-262 170l-262 -170z" />
<glyph unicode="&#xfc;" horiz-adv-x="1140" d="M8 623v59h393v-383q0 -219 148 -219q70 0 130 54t60 149v102q0 152 -29.5 195t-131.5 43v59h391v-367q0 -152 29.5 -194.5t134.5 -42.5v-62l-359 -51q-20 39 -31 119q-94 -119 -256 -119q-137 0 -227 88t-90 219v113q0 154 -30 196t-132 42zM211 940q0 45 30.5 74.5 t73.5 29.5t74 -29.5t31 -74.5q0 -43 -31 -73.5t-74 -30.5t-73.5 30.5t-30.5 73.5zM618 940q0 45 31 74.5t74 29.5t73.5 -29.5t30.5 -74.5q0 -43 -30.5 -73.5t-73.5 -30.5t-74 30.5t-31 73.5z" />
<glyph unicode="&#xfd;" horiz-adv-x="733" d="M-68 623v59h449v-59q-66 0 -80 -23q-5 -8 -5 -20q0 -23 17 -60l119 -266l111 266q15 36 14 58q0 12 -4 21q-12 24 -70 24v59h303v-59q-102 0 -145 -103l-412 -997q-35 -76 -77 -76q-29 0 -55.5 17.5t-26.5 58.5q0 33 24.5 55.5t64.5 65.5t66 110l88 217l-245 549 q-44 103 -136 103zM332 852l248 231q68 61 116 62q35 0 55.5 -24.5t20.5 -51.5q0 -49 -61 -82l-367 -153z" />
<glyph unicode="&#xfe;" horiz-adv-x="1224" d="M78 0v59q127 0 160.5 43t33.5 197v631q0 154 -33.5 196.5t-160.5 42.5v60h647v-60q-119 0 -156 -35.5t-41 -156.5h236q186 0 300 -99.5t114 -247t-114 -246.5t-300 -99h-236q2 -143 37 -184.5t160 -41.5v-59h-647zM528 377h113q129 0 195.5 70.5t66.5 183.5 q0 111 -67.5 182.5t-194.5 71.5h-113v-508z" />
<glyph unicode="&#xff;" horiz-adv-x="733" d="M-68 623v59h449v-59q-66 0 -80 -23q-5 -8 -5 -20q0 -23 17 -60l119 -266l111 266q15 36 14 58q0 12 -4 21q-12 24 -70 24v59h303v-59q-102 0 -145 -103l-412 -997q-35 -76 -77 -76q-29 0 -55.5 17.5t-26.5 58.5q0 33 24.5 55.5t64.5 65.5t66 110l88 217l-245 549 q-44 103 -136 103zM74 940q0 45 30.5 74.5t73.5 29.5t74 -29.5t31 -74.5q0 -43 -31 -73.5t-74 -30.5t-73.5 30.5t-30.5 73.5zM481 940q0 45 31 74.5t74 29.5t73.5 -29.5t30.5 -74.5q0 -43 -30.5 -73.5t-73.5 -30.5t-74 30.5t-31 73.5z" />
<glyph unicode="&#x152;" horiz-adv-x="2068" d="M145 614.5q0 268.5 201 459t481 190.5q115 0 220 -35h841l17 -289h-60l-10 41q-14 61 -31.5 90t-65.5 47.5t-141 18.5h-311v-441h111q154 0 195.5 35t41.5 162h62v-485h-62q0 129 -42 162.5t-195 33.5h-111v-272q0 -154 34 -197t161 -43h184q92 0 140 18.5t65.5 47 t32.5 90.5l10 41h59l-16 -289h-909q-104 -35 -220 -35q-281 0 -481.5 190.5t-200.5 459zM420 614.5q0 -133.5 40 -254t136 -209t231 -88.5q117 0 203 64v975q-82 63 -203 63q-135 0 -231 -88t-136 -208.5t-40 -254z" />
<glyph unicode="&#x153;" horiz-adv-x="1466" d="M102 342q0 156 122 265.5t292 109.5q164 0 285 -105q115 104 276 105q160 0 246 -112q60 -78 60 -158q0 -34 -11 -68h-444q-2 -25 -2 -47q0 -113 51 -179q61 -79 151 -79q143 0 242 86l37 -60q-55 -59 -141 -97t-172 -38q-172 0 -293 107q-121 -106 -285 -107 q-170 0 -292 110.5t-122 266.5zM354 342q0 -123 41 -202t121 -79t121 79t41 202t-41 201t-121 78t-121 -78t-41 -201zM940 469h274q0 7 1 14q0 56 -30 94q-34 42 -98 41q-112 1 -147 -149z" />
<glyph unicode="&#x178;" horiz-adv-x="1296" d="M-68 1169v60h695v-60q-144 0 -144 -69q0 -34 35 -86l230 -346l229 346q40 59 40 94q0 15 -7 26q-25 36 -144 35v60h496v-60q-121 0 -173 -35.5t-122 -144.5l-293 -442v-248q0 -154 34 -197t161 -43v-59h-639v59q127 0 161.5 43t34.5 197v242l-297 448q-72 109 -130 144.5 t-167 35.5zM385 1485q0 45 30.5 74.5t73.5 29.5t74 -29.5t31 -74.5q0 -43 -31 -74t-74 -31t-73.5 31t-30.5 74zM793 1485q0 45 30.5 74.5t73.5 29.5t73.5 -29.5t30.5 -74.5q0 -43 -30.5 -74t-73.5 -31t-73.5 31t-30.5 74z" />
<glyph unicode="&#x2c6;" horiz-adv-x="700" d="M76 1098l293 317l293 -317l-31 -29l-262 170l-263 -170z" />
<glyph unicode="&#x2dc;" horiz-adv-x="614" d="M6 1130q0 104 46 172t114 68q49 0 156.5 -67.5t152.5 -67.5q78 0 105 117h41q0 -115 -46.5 -179.5t-123.5 -64.5q-45 0 -156 67.5t-145 67.5q-33 0 -63 -32.5t-42 -80.5h-39z" />
<glyph unicode="&#x2013;" horiz-adv-x="1075" d="M-2 340v158h1077v-158h-1077z" />
<glyph unicode="&#x2014;" horiz-adv-x="1366" d="M-2 340v158h1368v-158h-1368z" />
<glyph unicode="&#x2018;" horiz-adv-x="514" d="M117 1102q0 76 44 119t103 43q53 0 91 -39t38 -92.5t-38 -93.5t-91 -40h-10q18 -106 133 -225l-41 -41q-111 70 -170 172.5t-59 196.5z" />
<glyph unicode="&#x2019;" horiz-adv-x="514" d="M121 1132.5q0 53.5 38 92.5t91 39q59 0 103 -43t44 -119q0 -94 -59 -196.5t-170 -172.5l-41 41q115 119 133 225h-10q-53 0 -91 40t-38 93.5z" />
<glyph unicode="&#x201a;" horiz-adv-x="598" d="M133 114.5q0 53.5 38 92.5t91 39q57 0 102.5 -43t45.5 -117q0 -96 -59.5 -198.5t-170.5 -172.5l-41 41q117 123 133 228h-10q-53 0 -91 38.5t-38 92z" />
<glyph unicode="&#x201c;" horiz-adv-x="888" d="M117 1102q0 76 44 119t103 43q53 0 91 -39t38 -92.5t-38 -93.5t-91 -40h-10q18 -106 133 -225l-41 -41q-111 70 -170 172.5t-59 196.5zM492 1102q0 76 45 119t104 43q53 0 90 -39t37 -92q0 -55 -37 -94.5t-90 -39.5h-10q14 -102 133 -225l-41 -41q-111 70 -171 172.5 t-60 196.5z" />
<glyph unicode="&#x201d;" horiz-adv-x="888" d="M121 1132.5q0 53.5 38 92.5t91 39q59 0 103 -43t44 -119q0 -94 -59 -196.5t-170 -172.5l-41 41q115 119 133 225h-10q-53 0 -91 40t-38 93.5zM498 1133q0 53 36.5 92t90.5 39q59 0 104 -43t45 -119q0 -94 -60.5 -196.5t-170.5 -172.5l-41 41q115 119 133 225h-10 q-53 0 -90 39.5t-37 94.5z" />
<glyph unicode="&#x201e;" horiz-adv-x="888" d="M121 114.5q0 53.5 38 92.5t91 39q57 0 102 -43t45 -117q0 -96 -59 -198.5t-170 -172.5l-41 41q115 119 133 228h-10q-53 0 -91 38.5t-38 92zM498 114.5q0 53.5 36.5 92.5t90.5 39q59 0 104 -43t45 -117q0 -96 -60.5 -198.5t-170.5 -172.5l-41 41q115 119 133 228h-10 q-53 0 -90 38.5t-37 92z" />
<glyph unicode="&#x2022;" horiz-adv-x="620" d="M106 471q0 84 60.5 144.5t144.5 60.5t144.5 -60.5t60.5 -144.5t-60.5 -144.5t-144.5 -60.5t-144.5 60.5t-60.5 144.5z" />
<glyph unicode="&#x2026;" horiz-adv-x="1835" d="M176 114.5q0 53.5 37 92.5t90 39t93 -39t40 -92.5t-40 -92t-93 -38.5t-90 38.5t-37 92zM774 114.5q0 53.5 37 92.5t90 39t92 -39t39 -92.5t-39 -92t-92 -38.5t-90 38.5t-37 92zM1370 114.5q0 53.5 38 92.5t91 39t92 -39t39 -92.5t-39 -92t-92 -38.5t-91 38.5t-38 92z" />
<glyph unicode="&#x2039;" horiz-adv-x="1024" d="M154 549l692 444l31 -45l-359 -399l359 -399l-31 -48z" />
<glyph unicode="&#x203a;" horiz-adv-x="1024" d="M147 150l359 399l-359 399l33 45l690 -444l-690 -447z" />
<glyph unicode="&#x2122;" horiz-adv-x="2074" d="M45 987l12 242h820l14 -242h-55l-11 37q-16 70 -54 94.5t-159 24.5h-32v-443q0 -137 27.5 -176t119.5 -39v-55h-516v55q92 0 118.5 39t26.5 176v443h-32q-121 0 -160 -24.5t-55 -94.5l-11 -37h-53zM979 430v55q92 0 117.5 38t25.5 177v258q0 139 -25.5 177.5t-117.5 38.5 v55h346l221 -518l223 518h302v-55q-92 0 -119 -39t-27 -177v-258q0 -137 26.5 -176t119.5 -39v-55h-465v55q92 0 118.5 39t26.5 176v285l-252 -586h-24l-265 613v-312q0 -137 27 -176t119 -39v-55h-377z" />
<glyph unicode="&#xe000;" horiz-adv-x="680" d="M0 680h680v-680h-680v680z" />
<glyph unicode="&#xfb01;" horiz-adv-x="1368" d="M57 592v90h168v143q0 217 117 328t301 111q150 0 248 -65.5t98 -176.5q0 -37 -27.5 -64.5t-64.5 -27.5q-41 0 -62.5 25.5t-28.5 62.5t-17.5 73.5t-44 62.5t-93.5 26q-86 0 -140 -63.5t-54 -190.5v-244h706v-383q0 -154 30 -197t132 -43v-59h-555v59q102 0 132 43t30 197 v55q0 154 -30 196t-132 42h-313v-293q0 -154 29.5 -197t131.5 -43v-59h-555v59q102 0 132 43t30 197v293h-168z" />
<glyph unicode="&#xfb02;" horiz-adv-x="1296" d="M57 592v90h168v166q0 416 365 416h518v-965q0 -154 29.5 -197t132.5 -43v-59h-555v59q102 0 132 43t30 197v590q0 162 -32 226.5t-130 64.5h-131q-76 0 -101.5 -56.5t-25.5 -187.5v-254h205v-90h-205v-293q0 -154 29.5 -197t131.5 -43v-59h-555v59q102 0 132 43t30 197 v293h-168z" />
<glyph unicode="&#xfb03;" horiz-adv-x="2058" d="M57 592v90h168v166q0 211 83 313.5t263 102.5q115 0 186.5 -57.5t71.5 -123.5q0 -35 -20.5 -59.5t-56.5 -24.5q-41 0 -64.5 29t-32 61.5t-30 61.5t-58.5 29q-63 0 -86.5 -54.5t-23.5 -189.5v-254h205v-90h-205v-293q0 -154 29.5 -197t131.5 -43v-59h-555v59q102 0 132 43 t30 197v293h-168zM748 592v90h167v166q0 211 83 313.5t264 102.5q115 0 186.5 -57.5t71.5 -123.5q0 -35 -20.5 -59.5t-57.5 -24.5q-41 0 -64.5 29t-32 61.5t-30 61.5t-58.5 29q-63 0 -86.5 -54.5t-23.5 -189.5v-254h205v-90h-205v-293q0 -154 29.5 -197t132.5 -43v-59h-555 v59q102 0 131.5 43t29.5 197v293h-167zM1460 0v59q102 0 132 43t30 197v68q0 154 -29.5 196.5t-132.5 42.5v60l393 51v-418q0 -154 30 -197t132 -43v-59h-555zM1610 1061q0 53 36.5 92t90 39t92.5 -39t39 -92t-39 -93t-92.5 -40t-90 39t-36.5 94z" />
<glyph unicode="&#xfb04;" horiz-adv-x="2058" d="M57 592v90h168v166q0 211 83 313.5t263 102.5q115 0 186.5 -57.5t71.5 -123.5q0 -35 -20.5 -59.5t-56.5 -24.5q-41 0 -64.5 29t-32 61.5t-30 61.5t-58.5 29q-63 0 -86.5 -54.5t-23.5 -189.5v-254h205v-90h-205v-293q0 -154 29.5 -197t131.5 -43v-59h-555v59q102 0 132 43 t30 197v293h-168zM748 592v90h167v166q0 211 83 313.5t264 102.5q115 0 186.5 -57.5t71.5 -123.5q0 -35 -20.5 -59.5t-57.5 -24.5q-41 0 -64.5 29t-32 61.5t-30 61.5t-58.5 29q-63 0 -86.5 -54.5t-23.5 -189.5v-254h205v-90h-205v-293q0 -154 29.5 -197t132.5 -43v-59h-555 v59q102 0 131.5 43t29.5 197v293h-167zM1460 0v59q102 0 132 43t30 197v614q0 154 -29.5 197t-132.5 43v59l393 52v-965q0 -154 30 -197t132 -43v-59h-555z" />
</font>
</defs>
</svg>
